<svg width="458" height="528" viewBox="0 0 458 528" fill="none" xmlns="http://www.w3.org/2000/svg">
<path d="M306.835 488.051L278.872 488.179L309.439 478.805C315.666 452.511 313.708 423 313.708 423C313.708 423 253.199 424.499 231.016 449.149C208.833 473.8 215.543 495.775 233.375 512.267C251.207 528.758 273.408 533.519 295.592 508.869C300.529 503.382 304.164 496.082 306.835 488.051Z" fill="#F2F2F2"/>
<path d="M274.016 485.327L272.913 486.538C260.021 500.549 247.648 509.366 235.953 512.85C235.784 512.904 235.614 512.946 235.444 513L235.213 512.206L235 511.441C247.765 507.804 260.342 497.668 271.59 485.45C271.956 485.059 272.328 484.663 272.688 484.256C277.404 479.042 281.875 473.494 286.019 467.921C286.343 467.493 286.667 467.053 286.991 466.613C292.422 459.229 297.269 451.86 301.322 445.315C301.61 444.854 301.893 444.387 302.17 443.926C308.984 432.82 313.388 424.288 314.35 422.388C314.472 422.159 314.535 422.029 314.55 422L315.267 422.358L315.278 422.357L316 422.72C315.984 422.75 315.775 423.185 315.363 423.973C313.842 426.932 309.636 434.898 303.527 444.892C303.25 445.341 302.967 445.808 302.679 446.27C299.395 451.584 295.608 457.417 291.418 463.342C290.367 464.832 289.316 466.288 288.263 467.709C287.945 468.154 287.621 468.594 287.296 469.023C282.818 475.048 278.391 480.482 274.016 485.327Z" fill="white"/>
<path d="M213.003 511L229.942 510.999L238 448L213 448.001L213.003 511Z" fill="#FFB6B6"/>
<path d="M210 506.001L241.759 506H241.761C247.128 506 252.276 508.041 256.072 511.673C259.867 515.306 262 520.232 262 525.369V525.998L210.001 526L210 506.001Z" fill="#2F2E41"/>
<path d="M86.0027 511L102.264 510.999L110 448L86 448.001L86.0027 511Z" fill="#FFB6B6"/>
<path d="M82 506.001L113.759 506H113.761C119.128 506 124.276 508.041 128.072 511.673C131.867 515.306 134 520.232 134 525.369V525.998L82.0009 526L82 506.001Z" fill="#2F2E41"/>
<path d="M113.285 251L102.444 261.158L90.225 383.874L82 481.587L106.856 485L167.146 318.043L211.259 484.208L241 485L221.261 268.097L113.285 251Z" fill="#2F2E41"/>
<path d="M166 70C183.121 70 197 56.1208 197 39C197 21.8792 183.121 8 166 8C148.879 8 135 21.8792 135 39C135 56.1208 148.879 70 166 70Z" fill="#FFB9B9"/>
<path d="M149.902 24.6162C149.902 24.6162 146.186 32.7454 161.05 29.4937C161.05 29.4937 166.623 32.7454 166.623 27.8679C166.623 27.8679 174.055 35.9971 175.913 31.1195C177.771 26.242 181.487 32.7454 181.487 32.7454L185.203 24.6162L188.919 29.4938H201.924C201.924 29.4938 205.64 -3.02311 161.05 0.228577C116.459 3.48027 138.395 55 138.395 55C138.395 55 138.754 45.7521 142.47 50.6297C146.186 55.5072 149.902 24.6162 149.902 24.6162Z" fill="#2F2E41"/>
<path d="M189.394 81.7583L146.033 79L107.393 89.4153L113.25 190.592L103 262.012C103 262.012 159.237 296.943 223.071 269.451L217.008 253.243C217.008 253.243 216.8 228.438 211.678 223.582C206.556 218.727 206.964 178.689 206.964 178.689L226 104.294L189.394 81.7583Z" fill="#1976D2"/>
<path d="M117.26 92.2311L106.955 89C106.955 89 90.9066 89.5518 82.562 108.355C74.2173 127.159 69 154.026 69 154.026L122 156L117.26 92.2311Z" fill="#1976D2"/>
<path d="M241.199 269.555L239.512 160L217 163.493L221.972 267.288C219.926 269.026 218.419 271.348 217.641 273.966C216.863 276.583 216.848 279.38 217.597 282.006C218.346 284.633 219.827 286.973 221.855 288.734C223.882 290.496 226.366 291.6 228.997 291.91C231.628 292.22 234.288 291.722 236.647 290.478C239.006 289.233 240.958 287.298 242.259 284.913C243.561 282.529 244.154 279.8 243.966 277.069C243.777 274.337 242.815 271.724 241.199 269.555Z" fill="#FFB9B9"/>
<path d="M213.623 113.472L226.73 104C226.73 104 251.915 123.545 252 166.544L216.865 175L197 146.648L213.623 113.472Z" fill="#1976D2"/>
<rect x="143" y="89" width="315" height="90" rx="8" fill="white"/>
<path d="M151.321 179H449.679C451.885 178.999 454 178.556 455.56 177.768C457.12 176.981 457.998 175.914 458 174.8V93.2C457.998 92.0865 457.12 91.0189 455.56 90.2315C454 89.4441 451.885 89.0012 449.679 89H151.321C149.115 89.0012 147 89.4441 145.44 90.2315C143.88 91.0189 143.002 92.0865 143 93.2V174.8C143.002 175.914 143.88 176.981 145.44 177.768C147 178.556 149.115 178.999 151.321 179ZM449.679 90.2C451.255 90.2009 452.766 90.5173 453.88 91.0797C454.994 91.6421 455.621 92.4046 455.623 93.2V174.8C455.621 175.595 454.994 176.358 453.88 176.92C452.766 177.483 451.255 177.799 449.679 177.8H151.321C149.745 177.799 148.234 177.483 147.12 176.92C146.006 176.358 145.379 175.595 145.377 174.8V93.2C145.379 92.4046 146.006 91.6421 147.12 91.0797C148.234 90.5173 149.745 90.2009 151.321 90.2H449.679Z" fill="#3F3D56"/>
<path d="M211.07 136.766C209.867 136.766 208.777 136.477 207.801 135.898C206.832 135.32 206.074 134.512 205.527 133.473C204.98 132.441 204.707 131.297 204.707 130.039C204.707 129.133 204.816 128.211 205.035 127.273C205.254 126.328 205.555 125.48 205.938 124.73H209.102C208.852 125.59 208.652 126.492 208.504 127.438C208.355 128.375 208.281 129.25 208.281 130.062C208.281 131.266 208.609 132.203 209.266 132.875C209.93 133.547 210.891 133.883 212.148 133.883H216.203C217.75 133.883 218.871 133.66 219.566 133.215C220.27 132.777 220.621 132.078 220.621 131.117V131H218.922H218.781C217.633 131 216.613 130.758 215.723 130.273C214.84 129.789 214.152 129.098 213.66 128.199C213.168 127.301 212.922 126.25 212.922 125.047C212.922 123.844 213.191 122.797 213.73 121.906C214.277 121.016 215.078 120.328 216.133 119.844C217.188 119.359 218.461 119.117 219.953 119.117H224.195V130.379C224.195 132.535 223.648 134.137 222.555 135.184C221.469 136.238 219.754 136.766 217.41 136.766H211.07ZM220.621 128.117V122H220C217.727 122 216.59 123.062 216.59 125.188C216.59 126.164 216.887 126.898 217.48 127.391C218.074 127.875 218.898 128.117 219.953 128.117H220.621ZM218.02 117.055C217.527 117.055 217.137 116.902 216.848 116.598C216.559 116.285 216.414 115.863 216.414 115.332C216.414 114.793 216.555 114.371 216.836 114.066C217.125 113.754 217.52 113.598 218.02 113.598C218.512 113.598 218.898 113.75 219.18 114.055C219.461 114.359 219.602 114.785 219.602 115.332C219.602 115.879 219.457 116.305 219.168 116.609C218.879 116.906 218.496 117.055 218.02 117.055ZM222.098 117.055C221.605 117.055 221.215 116.902 220.926 116.598C220.637 116.285 220.492 115.863 220.492 115.332C220.492 114.793 220.633 114.371 220.914 114.066C221.203 113.754 221.598 113.598 222.098 113.598C222.598 113.598 222.988 113.754 223.27 114.066C223.551 114.371 223.691 114.793 223.691 115.332C223.691 115.863 223.543 116.285 223.246 116.598C222.957 116.902 222.574 117.055 222.098 117.055ZM235.211 128.117C235.289 128.117 235.328 128.148 235.328 128.211V130.883C235.328 130.961 235.289 131 235.211 131H228.637V112.766H232.211V128.117H235.211ZM244.961 128.117V122H244.328C243.25 122 242.414 122.27 241.82 122.809C241.227 123.34 240.93 124.117 240.93 125.141C240.93 126.094 241.215 126.828 241.785 127.344C242.363 127.859 243.195 128.117 244.281 128.117H244.961ZM238.41 128.117C237.637 127.203 237.25 126.148 237.25 124.953C237.25 123.164 237.867 121.746 239.102 120.699C240.336 119.645 242.055 119.117 244.258 119.117H248.535V131H234.977C234.898 131 234.859 130.961 234.859 130.883V128.211C234.859 128.148 234.898 128.117 234.977 128.117H238.41ZM241.926 117.055C241.434 117.055 241.043 116.902 240.754 116.598C240.465 116.285 240.32 115.863 240.32 115.332C240.32 114.793 240.461 114.371 240.742 114.066C241.031 113.754 241.426 113.598 241.926 113.598C242.418 113.598 242.805 113.75 243.086 114.055C243.367 114.359 243.508 114.785 243.508 115.332C243.508 115.879 243.363 116.305 243.074 116.609C242.785 116.906 242.402 117.055 241.926 117.055ZM246.004 117.055C245.512 117.055 245.121 116.902 244.832 116.598C244.543 116.285 244.398 115.863 244.398 115.332C244.398 114.793 244.539 114.371 244.82 114.066C245.109 113.754 245.504 113.598 246.004 113.598C246.504 113.598 246.895 113.754 247.176 114.066C247.457 114.371 247.598 114.793 247.598 115.332C247.598 115.863 247.449 116.285 247.152 116.598C246.863 116.902 246.48 117.055 246.004 117.055ZM251.664 128.117H259.68C259.352 126.641 258.949 125.449 258.473 124.543C258.004 123.629 257.402 122.844 256.668 122.188C255.941 121.523 255.051 120.973 253.996 120.535L255.344 117.172C257.453 118.016 259.152 119.32 260.441 121.086C261.73 122.852 262.676 125.195 263.277 128.117H266.43C266.508 128.117 266.547 128.148 266.547 128.211V130.883C266.547 130.961 266.508 131 266.43 131H251.664V128.117ZM266.195 131C266.117 131 266.078 130.961 266.078 130.883V128.211C266.078 128.148 266.117 128.117 266.195 128.117H269.195V112.766H272.77V131H266.195ZM277.574 112.766H281.148V131H277.574V112.766ZM295.176 136.766C294.355 136.766 293.602 136.668 292.914 136.473C292.234 136.277 291.516 135.926 290.758 135.418L292.199 133.086C292.621 133.352 292.992 133.535 293.312 133.637C293.641 133.738 294.031 133.789 294.484 133.789C295.125 133.789 295.641 133.543 296.031 133.051C296.422 132.566 296.617 131.953 296.617 131.211V119.117H300.191V131.387C300.191 133.035 299.734 134.344 298.82 135.312C297.914 136.281 296.699 136.766 295.176 136.766ZM318.25 128.117C318.328 128.117 318.367 128.148 318.367 128.211V130.883C318.367 130.961 318.328 131 318.25 131H315.25C315.25 132.828 314.695 134.246 313.586 135.254C312.484 136.262 310.926 136.766 308.91 136.766C307.824 136.766 306.883 136.68 306.086 136.508C305.297 136.344 304.535 136.043 303.801 135.605L305.195 132.992C305.844 133.328 306.457 133.562 307.035 133.695C307.613 133.836 308.215 133.906 308.84 133.906C309.746 133.906 310.445 133.656 310.938 133.156C311.43 132.664 311.676 131.984 311.676 131.117V131H309.297C307.586 131 306.27 130.516 305.348 129.547C304.426 128.578 303.965 127.199 303.965 125.41C303.965 124.145 304.281 123.035 304.914 122.082C305.547 121.121 306.441 120.387 307.598 119.879C308.754 119.371 310.09 119.117 311.605 119.117H315.25V128.117H318.25ZM311.676 128.117V122H310.902C309.879 122 309.078 122.289 308.5 122.867C307.93 123.445 307.645 124.262 307.645 125.316C307.645 126.277 307.84 126.984 308.23 127.438C308.621 127.891 309.219 128.117 310.023 128.117H311.676ZM318.016 131C317.938 131 317.898 130.961 317.898 130.883V128.211C317.898 128.148 317.938 128.117 318.016 128.117H321.016V119.117H324.59V131H318.016ZM322.773 117.055C322.273 117.055 321.879 116.902 321.59 116.598C321.301 116.285 321.156 115.863 321.156 115.332C321.156 114.793 321.297 114.371 321.578 114.066C321.867 113.754 322.266 113.598 322.773 113.598C323.258 113.598 323.641 113.75 323.922 114.055C324.211 114.359 324.355 114.785 324.355 115.332C324.355 115.863 324.207 116.285 323.91 116.598C323.621 116.902 323.242 117.055 322.773 117.055ZM335.875 128.117H343.891C343.562 126.641 343.16 125.449 342.684 124.543C342.215 123.629 341.613 122.844 340.879 122.188C340.152 121.523 339.262 120.973 338.207 120.535L339.555 117.172C341.664 118.016 343.363 119.32 344.652 121.086C345.941 122.852 346.887 125.195 347.488 128.117H350.641C350.719 128.117 350.758 128.148 350.758 128.211V130.883C350.758 130.961 350.719 131 350.641 131H335.875V128.117ZM353.113 128.117C352.684 127.133 352.469 126.031 352.469 124.812C352.469 124.117 352.586 123.367 352.82 122.562C353.055 121.758 353.344 121.066 353.688 120.488C354.461 120.043 355.281 119.703 356.148 119.469C357.023 119.234 357.789 119.117 358.445 119.117C359.539 119.117 360.531 119.352 361.422 119.82C362.32 120.289 363.016 120.953 363.508 121.812C364 122.664 364.246 123.656 364.246 124.789C364.246 125.664 364.098 126.488 363.801 127.262C364.09 127.574 364.418 127.797 364.785 127.93C365.16 128.055 365.629 128.117 366.191 128.117H366.32C366.398 128.117 366.438 128.148 366.438 128.211V130.883C366.438 130.961 366.398 131 366.32 131H366.191C365.348 131 364.613 130.883 363.988 130.648C363.371 130.406 362.785 129.988 362.23 129.395C361.621 129.926 360.922 130.328 360.133 130.602C359.344 130.867 358.531 131 357.695 131H350.406C350.328 131 350.289 130.961 350.289 130.883V128.211C350.289 128.148 350.328 128.117 350.406 128.117H353.113ZM355.785 125.316C355.785 126.129 355.969 127.062 356.336 128.117H357.238C358.207 128.117 359.016 127.793 359.664 127.145C360.32 126.496 360.648 125.711 360.648 124.789C360.648 123.938 360.441 123.262 360.027 122.762C359.613 122.254 359.062 122 358.375 122C357.656 122 356.91 122.223 356.137 122.668C355.902 123.512 355.785 124.395 355.785 125.316ZM366.086 131C366.008 131 365.969 130.961 365.969 130.883V128.211C365.969 128.148 366.008 128.117 366.086 128.117H375.777C375.145 127.523 374.656 126.379 374.312 124.684C374.094 123.605 373.77 122.852 373.34 122.422C372.918 121.984 372.281 121.766 371.43 121.766C370.867 121.766 370.34 121.836 369.848 121.977C369.355 122.117 368.82 122.348 368.242 122.668L367.164 120.031C368.594 119.266 370.266 118.883 372.18 118.883C373.781 118.883 375.027 119.242 375.918 119.961C376.809 120.68 377.395 121.863 377.676 123.512C378.09 125.895 378.648 127.43 379.352 128.117H380.91C380.996 128.117 381.039 128.148 381.039 128.211V130.883C381.039 130.961 380.996 131 380.91 131H366.086ZM383.395 128.117C382.965 127.133 382.75 126.031 382.75 124.812C382.75 124.117 382.867 123.367 383.102 122.562C383.336 121.758 383.625 121.066 383.969 120.488C384.742 120.043 385.562 119.703 386.43 119.469C387.305 119.234 388.07 119.117 388.727 119.117C389.82 119.117 390.812 119.352 391.703 119.82C392.602 120.289 393.297 120.953 393.789 121.812C394.281 122.664 394.527 123.656 394.527 124.789C394.527 126.008 394.242 127.086 393.672 128.023C393.109 128.961 392.324 129.691 391.316 130.215C390.309 130.738 389.195 131 387.977 131H380.688C380.609 131 380.57 130.961 380.57 130.883V128.211C380.57 128.148 380.609 128.117 380.688 128.117H383.395ZM386.066 125.316C386.066 126.129 386.25 127.062 386.617 128.117H387.52C388.488 128.117 389.297 127.793 389.945 127.145C390.602 126.496 390.93 125.711 390.93 124.789C390.93 123.938 390.723 123.262 390.309 122.762C389.895 122.254 389.344 122 388.656 122C387.938 122 387.191 122.223 386.418 122.668C386.184 123.512 386.066 124.395 386.066 125.316Z" fill="black"/>
<path d="M282.224 153.968C282.224 154.757 282.064 155.472 281.744 156.112C281.424 156.741 280.934 157.243 280.272 157.616C279.622 157.979 278.79 158.16 277.776 158.16C276.358 158.16 275.275 157.776 274.528 157.008C273.792 156.229 273.424 155.205 273.424 153.936V146.576H274.864V153.984C274.864 154.912 275.11 155.632 275.6 156.144C276.102 156.656 276.854 156.912 277.856 156.912C278.55 156.912 279.11 156.789 279.536 156.544C279.974 156.288 280.294 155.941 280.496 155.504C280.699 155.056 280.8 154.544 280.8 153.968V146.576H282.224V153.968ZM293 158H291.368L288.344 153.04L285.272 158H283.752L287.544 152.048L283.992 146.576H285.592L288.391 151.056L291.208 146.576H292.727L289.192 152.016L293 158ZM304.292 146.576L300.036 158H298.66L302.916 146.576H304.292ZM320.131 153.968C320.131 154.757 319.971 155.472 319.651 156.112C319.331 156.741 318.84 157.243 318.179 157.616C317.528 157.979 316.696 158.16 315.683 158.16C314.264 158.16 313.181 157.776 312.435 157.008C311.699 156.229 311.331 155.205 311.331 153.936V146.576H312.771V153.984C312.771 154.912 313.016 155.632 313.507 156.144C314.008 156.656 314.76 156.912 315.763 156.912C316.456 156.912 317.016 156.789 317.443 156.544C317.88 156.288 318.2 155.941 318.403 155.504C318.605 155.056 318.707 154.544 318.707 153.968V146.576H320.131V153.968ZM326.362 158H322.234V157.168L323.578 156.864V147.728L322.234 147.408V146.576H326.362V147.408L325.018 147.728V156.864L326.362 157.168V158Z" fill="#595959"/>
<path d="M159 133.015C159 129.298 157.54 125.733 154.942 123.105C152.344 120.477 148.82 119 145.146 119C141.472 119 137.948 120.477 135.35 123.105C132.752 125.733 131.292 129.298 131.292 133.015C131.292 133.152 131.308 133.284 131.312 133.42L107.014 158.001L108.862 153.704L81.1537 152.369L77.1116 181.964C76.7575 184.696 77.2506 187.472 78.5227 189.908C79.7948 192.345 81.7833 194.322 84.2135 195.566C86.6438 196.81 89.3959 197.261 92.09 196.855C94.7842 196.449 97.2873 195.207 99.2539 193.301L147.15 146.867C150.44 146.383 153.448 144.716 155.624 142.173C157.8 139.629 158.998 136.379 159 133.015Z" fill="#FFB9B9"/>
<path d="M451.471 528H1.18186C0.868412 528 0.567818 527.895 0.346176 527.707C0.124534 527.52 0 527.265 0 527C0 526.735 0.124534 526.48 0.346176 526.293C0.567818 526.105 0.868412 526 1.18186 526H451.471C451.784 526 452.085 526.105 452.307 526.293C452.528 526.48 452.653 526.735 452.653 527C452.653 527.265 452.528 527.52 452.307 527.707C452.085 527.895 451.784 528 451.471 528Z" fill="#3F3D56"/>
</svg>
