<svg width="624" height="526" viewBox="0 0 624 526" fill="none" xmlns="http://www.w3.org/2000/svg">
<path d="M429.296 520.406C418.661 511.396 412.201 497.163 413.895 483.306C415.589 469.45 426.082 456.712 439.693 453.769C453.305 450.827 468.821 458.972 472.955 472.303C475.23 446.602 477.852 419.824 491.481 397.937C503.822 378.12 525.196 363.939 548.361 361.402C571.526 358.865 595.916 368.447 610.363 386.778C624.81 405.109 628.347 431.759 618.229 452.804C610.775 468.308 597.042 479.846 582.654 489.232C536.16 519.309 480.396 531.539 425.623 523.674" fill="#F2F2F2"/>
<path d="M587.254 369.528C568.084 385.131 550.498 402.581 534.75 421.627C510.103 451.332 490.159 484.637 475.612 520.38C474.548 522.988 478.785 524.123 479.838 521.545C503.639 463.453 541.636 412.252 590.353 372.624C592.541 370.844 589.424 367.762 587.254 369.528Z" fill="white"/>
<rect y="209" width="315" height="90" rx="8" fill="white"/>
<path d="M8.32077 299H306.679C308.885 298.999 311 298.556 312.56 297.768C314.12 296.981 314.998 295.914 315 294.8V213.2C314.998 212.086 314.12 211.019 312.56 210.232C311 209.444 308.885 209.001 306.679 209H8.32077C6.11472 209.001 3.99973 209.444 2.43982 210.232C0.879913 211.019 0.00247192 212.086 0 213.2V294.8C0.00247192 295.914 0.879913 296.981 2.43982 297.768C3.99973 298.556 6.11472 298.999 8.32077 299ZM306.679 210.2C308.255 210.201 309.766 210.517 310.88 211.08C311.994 211.642 312.621 212.405 312.623 213.2V294.8C312.621 295.595 311.994 296.358 310.88 296.92C309.766 297.483 308.255 297.799 306.679 297.8H8.32077C6.74506 297.799 5.23438 297.483 4.12018 296.92C3.00598 296.358 2.37921 295.595 2.37738 294.8V213.2C2.37921 212.405 3.00598 211.642 4.12018 211.08C5.23438 210.517 6.74506 210.201 8.32077 210.2H306.679Z" fill="#3F3D56"/>
<path d="M72.7227 251.117C73.5195 251.117 74.1016 250.895 74.4688 250.449C74.8359 250.004 75.0195 249.301 75.0195 248.34V243.992H78.5938V248.621C78.5938 249.012 78.5703 249.371 78.5234 249.699C78.9219 250.23 79.3164 250.602 79.707 250.812C80.1055 251.016 80.6094 251.117 81.2188 251.117H82.6953V242.117H86.2812V254H81.2891C79.9297 254 78.6719 253.398 77.5156 252.195C76.6172 253.398 75.2812 254 73.5078 254H70.6484C70.3594 257.844 68.0078 259.766 63.5938 259.766H62.5391C61.2031 259.766 60.0391 259.484 59.0469 258.922C58.0625 258.359 57.3086 257.566 56.7852 256.543C56.2695 255.527 56.0117 254.359 56.0117 253.039C56.0117 252.133 56.1211 251.211 56.3398 250.273C56.5586 249.328 56.8594 248.48 57.2422 247.73H60.4062C60.1562 248.59 59.957 249.492 59.8086 250.438C59.6602 251.375 59.5859 252.25 59.5859 253.062C59.5859 254.227 59.8789 255.152 60.4648 255.84C61.0508 256.535 61.8242 256.883 62.7852 256.883H63.5C64.7344 256.883 65.6406 256.547 66.2188 255.875C66.8047 255.211 67.0977 254.273 67.0977 253.062V243.992H70.6719V251.117H72.7227ZM97.2969 251.117C97.375 251.117 97.4141 251.148 97.4141 251.211V253.883C97.4141 253.961 97.375 254 97.2969 254H90.7227V235.766H94.2969V251.117H97.2969ZM97.0625 254C96.9844 254 96.9453 253.961 96.9453 253.883V251.211C96.9453 251.148 96.9844 251.117 97.0625 251.117H100.754C100.16 250.852 99.6875 250.402 99.3359 249.77C98.9844 249.137 98.8086 248.434 98.8086 247.66C98.8086 245.863 99.3984 244.453 100.578 243.43C101.766 242.398 103.387 241.883 105.441 241.883C106.145 241.883 106.879 241.961 107.645 242.117C108.418 242.273 109.027 242.457 109.473 242.668L108.465 245.48C107.848 245.215 107.297 245.031 106.812 244.93C106.328 244.82 105.836 244.766 105.336 244.766C104.352 244.766 103.59 245.027 103.051 245.551C102.512 246.074 102.242 246.828 102.242 247.812C102.242 248.781 102.52 249.574 103.074 250.191C103.629 250.809 104.375 251.117 105.312 251.117H109.707V254H97.0625ZM111.875 251.117H119.891C119.562 249.641 119.16 248.449 118.684 247.543C118.215 246.629 117.613 245.844 116.879 245.188C116.152 244.523 115.262 243.973 114.207 243.535L115.555 240.172C117.695 241.031 119.41 242.359 120.699 244.156C121.996 245.945 122.934 248.297 123.512 251.211V254H111.875V251.117ZM152.574 251.117C152.652 251.117 152.691 251.148 152.691 251.211V253.883C152.691 253.961 152.652 254 152.574 254H149.445C149.156 257.844 146.805 259.766 142.391 259.766H141.336C140 259.766 138.836 259.484 137.844 258.922C136.859 258.359 136.105 257.566 135.582 256.543C135.066 255.527 134.809 254.359 134.809 253.039C134.809 252.133 134.918 251.211 135.137 250.273C135.355 249.328 135.656 248.48 136.039 247.73H139.203C138.953 248.59 138.754 249.492 138.605 250.438C138.457 251.375 138.383 252.25 138.383 253.062C138.383 254.227 138.676 255.152 139.262 255.84C139.848 256.535 140.621 256.883 141.582 256.883H142.297C143.531 256.883 144.438 256.547 145.016 255.875C145.602 255.211 145.895 254.273 145.895 253.062V242.117H149.469V251.117H152.574ZM142.133 242.105C141.633 242.105 141.238 241.953 140.949 241.648C140.66 241.336 140.516 240.914 140.516 240.383C140.516 239.844 140.656 239.422 140.938 239.117C141.227 238.805 141.625 238.648 142.133 238.648C142.617 238.648 143 238.801 143.281 239.105C143.57 239.41 143.715 239.836 143.715 240.383C143.715 240.914 143.566 241.336 143.27 241.648C142.98 241.953 142.602 242.105 142.133 242.105ZM155.035 251.117C154.605 250.133 154.391 249.031 154.391 247.812C154.391 247.117 154.508 246.367 154.742 245.562C154.977 244.758 155.266 244.066 155.609 243.488C156.383 243.043 157.203 242.703 158.07 242.469C158.945 242.234 159.711 242.117 160.367 242.117C161.461 242.117 162.453 242.352 163.344 242.82C164.242 243.289 164.938 243.953 165.43 244.812C165.922 245.664 166.168 246.656 166.168 247.789C166.168 248.664 166.02 249.488 165.723 250.262C166.012 250.574 166.34 250.797 166.707 250.93C167.082 251.055 167.551 251.117 168.113 251.117H168.242C168.32 251.117 168.359 251.148 168.359 251.211V253.883C168.359 253.961 168.32 254 168.242 254H168.113C167.27 254 166.535 253.883 165.91 253.648C165.293 253.406 164.707 252.988 164.152 252.395C163.543 252.926 162.844 253.328 162.055 253.602C161.266 253.867 160.453 254 159.617 254H152.328C152.25 254 152.211 253.961 152.211 253.883V251.211C152.211 251.148 152.25 251.117 152.328 251.117H155.035ZM157.707 248.316C157.707 249.129 157.891 250.062 158.258 251.117H159.16C160.129 251.117 160.938 250.793 161.586 250.145C162.242 249.496 162.57 248.711 162.57 247.789C162.57 246.938 162.363 246.262 161.949 245.762C161.535 245.254 160.984 245 160.297 245C159.578 245 158.832 245.223 158.059 245.668C157.824 246.512 157.707 247.395 157.707 248.316ZM168.008 254C167.93 254 167.891 253.961 167.891 253.883V251.211C167.891 251.148 167.93 251.117 168.008 251.117H177.676V251.094C177.051 250.531 176.57 249.395 176.234 247.684C176.016 246.605 175.691 245.852 175.262 245.422C174.84 244.984 174.203 244.766 173.352 244.766C172.789 244.766 172.262 244.836 171.77 244.977C171.277 245.117 170.742 245.348 170.164 245.668L169.086 243.031C170.516 242.266 172.188 241.883 174.102 241.883C175.703 241.883 176.949 242.242 177.84 242.961C178.73 243.68 179.316 244.863 179.598 246.512C180.012 248.895 180.57 250.43 181.273 251.117V254H168.008ZM194.434 251.117C194.512 251.117 194.551 251.148 194.551 251.211V253.883C194.551 253.961 194.512 254 194.434 254H191.316V254.387C191.316 256.035 190.859 257.344 189.945 258.312C189.039 259.281 187.824 259.766 186.301 259.766C185.48 259.766 184.727 259.668 184.039 259.473C183.359 259.277 182.641 258.926 181.883 258.418L183.324 256.086C183.746 256.352 184.117 256.535 184.438 256.637C184.766 256.738 185.156 256.789 185.609 256.789C186.25 256.789 186.766 256.543 187.156 256.051C187.547 255.566 187.742 254.953 187.742 254.211V242.117H191.316V251.117H194.434ZM194.211 254C194.133 254 194.094 253.961 194.094 253.883V251.211C194.094 251.148 194.133 251.117 194.211 251.117H197.211V235.766H200.785V254H194.211ZM205.59 235.766H209.164V254H205.59V235.766ZM220.812 251.117H228.828C228.5 249.641 228.098 248.449 227.621 247.543C227.152 246.629 226.551 245.844 225.816 245.188C225.09 244.523 224.199 243.973 223.145 243.535L224.492 240.172C226.602 241.016 228.301 242.32 229.59 244.086C230.879 245.852 231.824 248.195 232.426 251.117H235.578C235.656 251.117 235.695 251.148 235.695 251.211V253.883C235.695 253.961 235.656 254 235.578 254H220.812V251.117ZM245.035 251.117C245.113 251.117 245.152 251.148 245.152 251.211V253.883C245.152 253.961 245.113 254 245.035 254H235.344C235.266 254 235.227 253.961 235.227 253.883V251.211C235.227 251.148 235.266 251.117 235.344 251.117H238.344V242.117H241.918V251.117H245.035ZM240.055 260C239.555 260 239.16 259.844 238.871 259.531C238.582 259.227 238.438 258.809 238.438 258.277C238.438 257.738 238.578 257.312 238.859 257C239.148 256.695 239.547 256.543 240.055 256.543C240.539 256.543 240.922 256.695 241.203 257C241.492 257.305 241.637 257.73 241.637 258.277C241.637 258.809 241.488 259.227 241.191 259.531C240.902 259.844 240.523 260 240.055 260ZM244.812 254C244.734 254 244.695 253.961 244.695 253.883V251.211C244.695 251.148 244.734 251.117 244.812 251.117H248.504C247.91 250.852 247.438 250.402 247.086 249.77C246.734 249.137 246.559 248.434 246.559 247.66C246.559 245.863 247.148 244.453 248.328 243.43C249.516 242.398 251.137 241.883 253.191 241.883C253.895 241.883 254.629 241.961 255.395 242.117C256.168 242.273 256.777 242.457 257.223 242.668L256.215 245.48C255.598 245.215 255.047 245.031 254.562 244.93C254.078 244.82 253.586 244.766 253.086 244.766C252.102 244.766 251.34 245.027 250.801 245.551C250.262 246.074 249.992 246.828 249.992 247.812C249.992 248.781 250.27 249.574 250.824 250.191C251.379 250.809 252.125 251.117 253.062 251.117H257.457V254H244.812Z" fill="black"/>
<path d="M86.8969 284.04C86.6409 284.04 86.4169 284.019 86.2249 283.976C86.0329 283.944 85.8623 283.896 85.7129 283.832V282.616C85.8836 282.659 86.0649 282.696 86.2569 282.728C86.4489 282.76 86.6516 282.776 86.8649 282.776C87.1316 282.776 87.3823 282.723 87.6169 282.616C87.8623 282.509 88.0596 282.323 88.2089 282.056C88.3583 281.789 88.4329 281.416 88.4329 280.936V269.576H89.8729V280.824C89.8729 281.56 89.7503 282.163 89.5049 282.632C89.2596 283.112 88.9129 283.464 88.4649 283.688C88.0169 283.923 87.4943 284.04 86.8969 284.04ZM100.056 281L98.6799 277.464H94.1519L92.7919 281H91.3359L95.7999 269.528H97.0959L101.544 281H100.056ZM96.9679 272.728C96.9359 272.643 96.8826 272.488 96.8079 272.264C96.7333 272.04 96.6586 271.811 96.5839 271.576C96.5199 271.331 96.4666 271.144 96.4239 271.016C96.3706 271.229 96.3119 271.448 96.2479 271.672C96.1946 271.885 96.1359 272.083 96.0719 272.264C96.0186 272.445 95.9706 272.6 95.9279 272.728L94.6319 276.184H98.2479L96.9679 272.728ZM110.514 269.576L106.434 281H104.994L100.914 269.576H102.418L104.994 276.904C105.111 277.213 105.213 277.512 105.298 277.8C105.383 278.088 105.458 278.365 105.522 278.632C105.597 278.888 105.661 279.144 105.714 279.4C105.767 279.144 105.826 278.883 105.89 278.616C105.965 278.349 106.045 278.072 106.13 277.784C106.226 277.496 106.327 277.192 106.434 276.872L108.994 269.576H110.514ZM118.587 281L117.211 277.464H112.683L111.323 281H109.867L114.331 269.528H115.627L120.075 281H118.587ZM115.499 272.728C115.467 272.643 115.414 272.488 115.339 272.264C115.265 272.04 115.19 271.811 115.115 271.576C115.051 271.331 114.998 271.144 114.955 271.016C114.902 271.229 114.843 271.448 114.779 271.672C114.726 271.885 114.667 272.083 114.603 272.264C114.55 272.445 114.502 272.6 114.459 272.728L113.163 276.184H116.779L115.499 272.728ZM130.387 269.4C130.963 269.4 131.454 269.501 131.859 269.704C132.275 269.896 132.595 270.173 132.819 270.536C133.043 270.899 133.155 271.341 133.155 271.864C133.155 272.536 132.937 273.107 132.499 273.576C132.073 274.045 131.529 274.472 130.867 274.856L133.955 277.832C134.233 277.501 134.457 277.123 134.627 276.696C134.809 276.259 134.958 275.789 135.075 275.288H136.499C136.329 275.971 136.115 276.605 135.859 277.192C135.603 277.779 135.273 278.291 134.867 278.728L137.203 281H135.299L133.907 279.656C133.651 279.88 133.385 280.088 133.107 280.28C132.841 280.461 132.547 280.616 132.227 280.744C131.907 280.872 131.561 280.973 131.187 281.048C130.825 281.123 130.419 281.16 129.971 281.16C129.235 281.16 128.595 281.043 128.051 280.808C127.518 280.563 127.102 280.205 126.803 279.736C126.515 279.267 126.371 278.696 126.371 278.024C126.371 277.48 126.467 277.011 126.659 276.616C126.862 276.221 127.15 275.869 127.523 275.56C127.897 275.251 128.334 274.952 128.835 274.664C128.611 274.408 128.393 274.141 128.179 273.864C127.966 273.587 127.79 273.288 127.651 272.968C127.513 272.637 127.443 272.28 127.443 271.896C127.443 271.373 127.561 270.925 127.795 270.552C128.03 270.179 128.366 269.896 128.803 269.704C129.251 269.501 129.779 269.4 130.387 269.4ZM129.683 275.544C129.299 275.768 128.969 275.997 128.691 276.232C128.425 276.456 128.217 276.707 128.067 276.984C127.918 277.261 127.843 277.592 127.843 277.976C127.843 278.563 128.041 279.032 128.435 279.384C128.83 279.736 129.358 279.912 130.019 279.912C130.702 279.912 131.289 279.8 131.779 279.576C132.27 279.352 132.681 279.085 133.011 278.776L129.683 275.544ZM130.339 270.552C129.891 270.552 129.523 270.669 129.235 270.904C128.958 271.139 128.819 271.464 128.819 271.88C128.819 272.264 128.921 272.621 129.123 272.952C129.326 273.272 129.619 273.629 130.003 274.024C130.633 273.661 131.081 273.32 131.347 273C131.625 272.669 131.763 272.291 131.763 271.864C131.763 271.48 131.635 271.165 131.379 270.92C131.123 270.675 130.777 270.552 130.339 270.552ZM147.384 269.576C148.333 269.576 149.112 269.699 149.72 269.944C150.338 270.179 150.797 270.536 151.096 271.016C151.394 271.496 151.544 272.099 151.544 272.824C151.544 273.432 151.432 273.939 151.208 274.344C150.984 274.749 150.696 275.075 150.344 275.32C150.002 275.555 149.64 275.741 149.256 275.88L152.392 281H150.712L147.944 276.28H145.672V281H144.232V269.576H147.384ZM147.304 270.824H145.672V275.064H147.384C148.002 275.064 148.509 274.984 148.904 274.824C149.298 274.653 149.586 274.408 149.768 274.088C149.96 273.768 150.056 273.368 150.056 272.888C150.056 272.387 149.954 271.987 149.752 271.688C149.56 271.389 149.261 271.171 148.856 271.032C148.45 270.893 147.933 270.824 147.304 270.824ZM160.569 281H154.185V269.576H160.569V270.84H155.625V274.408H160.281V275.656H155.625V279.736H160.569V281ZM170.243 281L168.867 277.464H164.339L162.979 281H161.523L165.987 269.528H167.283L171.731 281H170.243ZM167.155 272.728C167.123 272.643 167.07 272.488 166.995 272.264C166.921 272.04 166.846 271.811 166.771 271.576C166.707 271.331 166.654 271.144 166.611 271.016C166.558 271.229 166.499 271.448 166.435 271.672C166.382 271.885 166.323 272.083 166.259 272.264C166.206 272.445 166.158 272.6 166.115 272.728L164.819 276.184H168.435L167.155 272.728ZM177.878 270.68C177.27 270.68 176.72 270.787 176.23 271C175.739 271.203 175.323 271.507 174.982 271.912C174.64 272.307 174.379 272.792 174.198 273.368C174.016 273.933 173.926 274.573 173.926 275.288C173.926 276.227 174.07 277.043 174.358 277.736C174.656 278.429 175.094 278.963 175.67 279.336C176.256 279.709 176.987 279.896 177.862 279.896C178.363 279.896 178.838 279.853 179.286 279.768C179.734 279.683 180.171 279.576 180.598 279.448V280.696C180.171 280.856 179.728 280.973 179.27 281.048C178.822 281.123 178.283 281.16 177.654 281.16C176.491 281.16 175.52 280.92 174.742 280.44C173.963 279.96 173.376 279.277 172.982 278.392C172.598 277.507 172.406 276.467 172.406 275.272C172.406 274.408 172.523 273.619 172.758 272.904C173.003 272.189 173.355 271.571 173.814 271.048C174.283 270.525 174.859 270.125 175.542 269.848C176.224 269.56 177.008 269.416 177.894 269.416C178.48 269.416 179.046 269.475 179.59 269.592C180.134 269.709 180.619 269.875 181.046 270.088L180.47 271.304C180.118 271.144 179.723 271 179.286 270.872C178.859 270.744 178.39 270.68 177.878 270.68ZM186.707 281H185.267V270.84H181.699V269.576H190.259V270.84H186.707V281ZM206.571 275.176C206.571 276.456 206.331 277.528 205.851 278.392C205.382 279.256 204.705 279.907 203.819 280.344C202.934 280.781 201.862 281 200.603 281H197.419V269.576H200.939C202.091 269.576 203.089 269.789 203.931 270.216C204.774 270.643 205.425 271.272 205.883 272.104C206.342 272.925 206.571 273.949 206.571 275.176ZM205.051 275.224C205.051 274.211 204.881 273.379 204.539 272.728C204.209 272.077 203.718 271.597 203.067 271.288C202.427 270.968 201.649 270.808 200.731 270.808H198.859V279.768H200.411C201.958 279.768 203.115 279.389 203.883 278.632C204.662 277.864 205.051 276.728 205.051 275.224ZM215.491 281H209.107V269.576H215.491V270.84H210.547V274.408H215.203V275.656H210.547V279.736H215.491V281ZM226.045 269.576L221.965 281H220.525L216.445 269.576H217.949L220.525 276.904C220.643 277.213 220.744 277.512 220.829 277.8C220.915 278.088 220.989 278.365 221.053 278.632C221.128 278.888 221.192 279.144 221.245 279.4C221.299 279.144 221.357 278.883 221.421 278.616C221.496 278.349 221.576 278.072 221.661 277.784C221.757 277.496 221.859 277.192 221.965 276.872L224.525 269.576H226.045Z" fill="#595959"/>
<path d="M425.092 82C442.437 82 456.498 68.1208 456.498 51C456.498 33.8792 442.437 20 425.092 20C407.747 20 393.685 33.8792 393.685 51C393.685 68.1208 407.747 82 425.092 82Z" fill="#FFB8B8"/>
<path d="M332.668 510L317.911 505.287L329.032 446L350.813 452.957L332.668 510Z" fill="#FFB8B8"/>
<path d="M307.791 497.278L336.942 506.597L331.227 524.582L284.814 509.745L285.028 509.073C285.75 506.799 286.912 504.691 288.447 502.867C289.982 501.044 291.86 499.542 293.974 498.447C296.088 497.352 298.396 496.685 300.767 496.484C303.138 496.284 305.525 496.553 307.791 497.278Z" fill="#2F2E41"/>
<path d="M439.549 510H424.011L416.617 450H439.549V510Z" fill="#FFB8B8"/>
<path d="M412.852 505H443.537V524H394.682V523.29C394.682 520.888 395.152 518.509 396.066 516.29C396.979 514.072 398.317 512.055 400.004 510.357C401.691 508.659 403.695 507.311 405.899 506.392C408.104 505.473 410.466 505 412.852 505Z" fill="#2F2E41"/>
<path d="M439.647 489.942L434.39 489.158C418.446 486.784 417.492 486.642 414.961 485.531C413.668 484.964 413.577 476.388 414.353 428.184C414.923 392.8 415.632 348.763 414.255 325.122C414.198 324.189 413.829 323.303 413.206 322.606C412.584 321.908 411.744 321.441 410.823 321.279C409.902 321.117 408.953 321.269 408.13 321.712C407.306 322.155 406.656 322.862 406.284 323.719C394.42 351.096 374.517 412.362 361.346 452.903C356.765 467.006 353.146 478.144 350.857 484.821C350.415 486.084 349.517 487.136 348.34 487.773C347.163 488.41 345.79 488.585 344.49 488.265C333.652 485.557 334.376 484.406 318.939 480.416C317.603 480.076 316.451 479.232 315.724 478.062C314.996 476.892 314.75 475.487 315.036 474.139C317.829 460.981 368.926 247.63 372.837 227.349C372.969 226.654 373.238 225.993 373.627 225.403C374.017 224.814 374.519 224.307 375.106 223.912C375.692 223.517 376.352 223.243 377.045 223.104C377.738 222.965 378.452 222.965 379.146 223.104C390.65 225.42 397.649 227.878 409.018 230.254C421.285 232.818 433.971 235.47 446.344 237.945C447.575 238.193 448.679 238.869 449.458 239.853C452.52 243.717 457.06 245.886 461.866 248.182C465.107 249.73 457.764 249.591 460.586 251.824C472.014 260.864 455.58 444.449 445.65 485.913C445.331 487.211 444.539 488.343 443.429 489.088C442.319 489.834 440.97 490.138 439.647 489.942Z" fill="#2F2E41"/>
<path d="M429.843 282.041C429.487 280.434 429.491 278.769 429.852 277.163C430.214 275.557 430.925 274.049 431.936 272.746C432.947 271.443 434.233 270.376 435.704 269.621C437.174 268.866 438.793 268.44 440.447 268.374L465.726 240L481.424 258.859L452.353 279.978C452.28 282.748 451.188 285.395 449.283 287.418C447.378 289.44 444.794 290.698 442.019 290.952C439.245 291.206 436.473 290.44 434.228 288.797C431.984 287.155 430.424 284.751 429.843 282.041Z" fill="#FFB8B8"/>
<path d="M438.072 78.5345C436.25 70.7882 445.458 54.1204 443.637 46.3741C442.403 41.1282 430.095 44.6943 427.223 40.1379C424.35 35.5815 419.539 31.8901 414.162 31.8296C407.981 31.7601 401.899 36.3551 396.044 34.3692C390.124 32.3611 388.231 24.2361 390.849 18.548C393.466 12.86 399.104 9.23542 404.675 6.39522C414.161 1.55869 425.206 -1.97319 435.359 1.22675C441.496 3.1611 446.627 7.35256 451.593 11.452C456.12 15.1889 460.723 19.0104 463.888 23.959C470.087 33.6534 469.713 46.7154 464.415 56.9327C459.117 67.1499 449.464 74.6477 438.828 79" fill="#2F2E41"/>
<path d="M362.406 257.946C365.743 252.317 370.81 225.945 377.058 181.681C381.312 151.463 385.018 120.76 386.857 105.077C387 103.808 387.46 102.596 388.193 101.555C388.927 100.514 389.911 99.6785 391.052 99.1265C392.245 98.545 393.432 97.9947 394.611 97.4756C409.839 90.7881 425.273 88.5725 440.479 90.8891C455.663 93.2436 469.905 99.7954 481.628 109.819L481.766 109.951L481.802 110.139C481.868 110.488 488.255 145.233 475.173 168.708C462.272 191.87 462.121 253.209 462.121 253.826V254.614L461.37 254.398C441.3 248.608 363.769 258.737 362.988 258.841L361.78 259L362.406 257.946Z" fill="#FFCF00"/>
<path d="M444.534 261.965L484.139 209.019L463.716 165.141L465.199 113.102L481.942 110L482.12 110.089C490.253 114.859 496.558 122.224 500.027 131.007C503.746 140.331 511.461 172.051 517.277 197.019C518.796 203.445 518.645 210.154 516.837 216.505C515.029 222.855 511.625 228.634 506.952 233.287L458.368 282L444.534 261.965Z" fill="#FFCF00"/>
<path d="M305.675 255.68C305.557 254.033 305.802 252.376 306.394 250.826C306.985 249.276 307.909 247.871 309.1 246.709C310.29 245.548 311.719 244.659 313.285 244.104C314.851 243.549 316.516 243.343 318.163 243.499L347.323 218.645L360.125 239.519L328.266 256.643C327.791 259.391 326.324 261.879 324.144 263.637C321.964 265.394 319.222 266.3 316.437 266.181C313.652 266.062 311.019 264.928 309.035 262.992C307.052 261.057 305.856 258.455 305.675 255.68Z" fill="#FFB8B8"/>
<path d="M333.646 260.005L322.624 238.163L369.2 191.332L355.307 146.231L354.894 144.902L356.437 135.652L356.493 135.483C364.023 120.569 374.566 108.977 387.827 101.028L388.293 100.75L388.614 101.191C391.904 105.713 394.285 110.829 395.623 116.252C399.423 131.526 405.608 204.688 405.67 205.425L405.698 205.751L333.646 260.005Z" fill="#FFCF00"/>
<path d="M611.851 526H161.562C161.248 526 160.948 525.895 160.726 525.707C160.504 525.52 160.38 525.265 160.38 525C160.38 524.735 160.504 524.48 160.726 524.293C160.948 524.105 161.248 524 161.562 524H611.851C612.164 524 612.465 524.105 612.686 524.293C612.908 524.48 613.033 524.735 613.033 525C613.033 525.265 612.908 525.52 612.686 525.707C612.465 525.895 612.164 526 611.851 526Z" fill="#3F3D56"/>
</svg>
