<svg width="655" height="683" viewBox="0 0 655 683" fill="none" xmlns="http://www.w3.org/2000/svg">
<g clip-path="url(#clip0_251_7466)">
<path d="M620 635.613C620 661.293 481.21 682.113 310 682.113C138.79 682.113 0 661.293 0 635.613C0 617.433 69.57 601.683 170.96 594.043C212.77 590.883 260.01 589.113 310 589.113C330.55 589.113 350.63 589.413 370.05 589.983C512.52 594.183 620 613.013 620 635.613Z" fill="#3F3D56"/>
<path opacity="0.1" d="M270 645.113C335.722 645.113 389 638.621 389 630.613C389 622.605 335.722 616.113 270 616.113C204.278 616.113 151 622.605 151 630.613C151 638.621 204.278 645.113 270 645.113Z" fill="black"/>
<path d="M269.5 641.113C331.632 641.113 382 587.387 382 521.113C382 454.839 331.632 401.113 269.5 401.113C207.368 401.113 157 454.839 157 521.113C157 587.387 207.368 641.113 269.5 641.113Z" fill="#3F3D56"/>
<path d="M305 592.113H235V656.113H305V592.113Z" fill="#1976D2"/>
<path d="M396.5 607.614L392.5 629.614L418.5 633.614L435.5 623.614L434.5 607.614H396.5Z" fill="#575A89"/>
<path d="M265.5 194.614C265.5 194.614 263.5 217.614 258.5 218.614C253.5 219.614 269.5 259.614 269.5 259.614H293.5L312.5 254.614L303.5 232.614C303.5 232.614 291.5 216.614 300.5 203.614C309.5 190.614 265.5 194.614 265.5 194.614Z" fill="#A0616A"/>
<path opacity="0.1" d="M265.5 194.614C265.5 194.614 263.5 217.614 258.5 218.614C253.5 219.614 269.5 259.614 269.5 259.614H293.5L312.5 254.614L303.5 232.614C303.5 232.614 291.5 216.614 300.5 203.614C309.5 190.614 265.5 194.614 265.5 194.614Z" fill="black"/>
<path d="M215.5 370.613C215.5 370.613 189.5 420.613 210.5 430.613C231.5 440.613 236.5 439.613 236.5 442.613C236.5 445.613 232.5 444.613 234.5 449.613C236.5 454.613 230.5 474.613 236.5 486.613C242.5 498.613 240.5 507.613 240.5 507.613C240.5 507.613 240.5 508.613 242.5 512.613C244.5 516.613 245.5 519.613 244.5 521.613C243.5 523.613 237.5 536.613 243.5 539.613C249.5 542.613 280.5 544.613 283.5 539.613C286.5 534.613 280.5 531.613 283.5 528.613C286.5 525.613 288.5 524.613 286.5 522.613C284.5 520.613 282.5 495.613 282.5 495.613C282.5 495.613 287.5 466.613 285.5 462.613C283.5 458.613 280.5 454.613 282.5 451.613C284.5 448.613 286.5 449.613 287.5 445.613C288.5 441.613 290.5 432.613 290.5 432.613L301.5 431.613L327.5 436.613C327.5 436.613 356.5 468.613 388.5 478.613C388.5 478.613 397.5 487.613 400.5 487.613C403.5 487.613 403.5 487.613 402.5 489.613C401.5 491.613 398.5 491.613 400.5 493.613C402.5 495.613 405.5 492.613 403.5 495.613C401.5 498.613 399.5 498.613 401.5 500.613C403.5 502.613 400.5 513.613 400.5 514.613C400.5 515.613 391.5 609.613 394.5 611.613C397.5 613.613 439.5 619.613 442.5 611.613C445.5 603.613 440.5 593.613 440.5 593.613C440.5 593.613 455.5 473.613 451.5 465.613C447.5 457.613 433.5 421.613 358.5 398.613C358.5 398.613 337.5 394.613 337.5 391.613C337.5 388.613 335.5 369.613 331.5 368.613C327.5 367.613 304.5 366.613 304.5 366.613L275.5 375.613L235.5 368.613L215.5 370.613Z" fill="#2F2E41"/>
<path d="M250.5 538.613L245.5 556.613C245.5 556.613 241.5 585.613 246.5 592.613C250.428 598.112 257.44 604.844 270.445 606.026C274.089 606.36 277.739 605.44 280.79 603.419C283.841 601.397 286.11 598.394 287.223 594.908C287.372 594.49 287.466 594.055 287.5 593.613C287.5 591.613 284.5 567.613 284.5 567.613L279.5 542.613L278.5 535.613L250.5 538.613Z" fill="#2F2E41"/>
<path d="M396.5 624.614C396.5 624.614 391.5 619.614 390.5 624.614C389.5 629.614 385.5 650.614 392.5 651.614C399.5 652.614 466.5 662.614 473.5 658.614C480.5 654.614 493.5 648.614 485.5 645.614C477.5 642.614 454.5 633.614 454.5 633.614C454.5 633.614 441.5 616.614 439.5 615.614C437.5 614.614 426.5 616.614 421.5 620.614C416.5 624.614 396.5 624.614 396.5 624.614Z" fill="#2F2E41"/>
<path d="M289.5 215.614C306.621 215.614 320.5 201.735 320.5 184.614C320.5 167.493 306.621 153.614 289.5 153.614C272.379 153.614 258.5 167.493 258.5 184.614C258.5 201.735 272.379 215.614 289.5 215.614Z" fill="#A0616A"/>
<path d="M286.5 254.614L274.5 241.614L261.199 215.614C261.199 215.614 251.5 212.614 249.5 217.614C247.5 222.614 211.5 238.614 211.5 238.614C211.5 238.614 220.5 322.614 216.5 330.614C212.5 338.614 205.5 370.614 211.5 373.614C217.5 376.614 245.5 373.614 254.5 377.614C263.5 381.614 289.5 381.614 296.5 376.614C303.5 371.614 305.5 367.614 312.5 370.614C318.459 373.168 332.391 285.853 336.402 259.833C336.74 257.647 336.459 255.411 335.592 253.377C334.724 251.343 333.305 249.592 331.494 248.323C322.521 242.029 306.361 231.183 303.5 232.614C299.5 234.614 286.5 254.614 286.5 254.614Z" fill="#575A89"/>
<path d="M329.5 250.613C331.848 251.2 333.961 252.492 335.554 254.314C337.146 256.137 338.143 258.403 338.411 260.809L346.5 333.613C346.5 333.613 326.5 376.613 316.5 347.613C306.5 318.613 329.5 250.613 329.5 250.613Z" fill="#575A89"/>
<path d="M327.5 340.613L349.5 334.613C349.5 334.613 353.5 362.613 357.5 362.613C361.5 362.613 343.5 378.613 334.5 376.613C325.5 374.613 312.5 367.613 311.5 362.613C310.5 357.613 320.5 336.613 320.5 336.613L327.5 340.613Z" fill="#575A89"/>
<path d="M266.099 197.987C268.206 193.339 267.84 187.917 269.583 183.12C270.516 180.551 272.031 178.233 274.008 176.347C275.985 174.461 278.372 173.057 280.981 172.245C283.591 171.434 286.353 171.237 289.051 171.67C291.749 172.102 294.311 173.153 296.536 174.739C298.778 176.338 301.026 178.583 303.762 178.278C306.709 177.95 309.337 174.662 312.046 175.867C315.049 177.202 314.238 182.584 317.28 183.827C318.881 184.481 320.774 183.474 321.697 182.011C322.505 180.474 322.945 178.771 322.983 177.035C323.403 172.77 323.782 168.256 321.932 164.39C321.154 163.08 320.476 161.712 319.904 160.3C319.58 158.981 319.451 157.622 319.518 156.266C319.502 151.253 319.136 146.024 316.613 141.692C313.813 136.884 308.638 133.811 303.239 132.469C297.841 131.128 292.185 131.334 286.641 131.803C277.478 132.579 267.922 134.241 260.703 139.938C259.722 140.655 258.877 141.542 258.21 142.557C257.576 143.764 257.128 145.059 256.881 146.399C255.321 152.755 252.98 158.894 249.914 164.676C248.439 167.127 247.233 169.731 246.318 172.442C245.553 175.196 245.604 178.335 247.207 180.702C248.512 182.63 250.598 183.657 252.237 185.233C253.86 186.794 254.62 189.797 256.419 190.98C257.989 192.012 259.87 191.283 261.472 192.377C263.528 193.782 263.677 196.861 266.099 197.987Z" fill="#2F2E41"/>
<path d="M291.5 269.613L294.5 263.613C294.5 263.613 338.5 276.613 347.5 288.613C347.5 288.613 369.5 274.613 381.5 276.613L393.5 278.613L356.5 311.613L309.5 307.613L291.5 269.613Z" fill="#F2F2F2"/>
<path d="M289.5 263.613L248.5 320.613L307.5 349.613C307.5 349.613 313.016 352.613 317.258 349.613L356.5 331.613L393.5 278.613L356.5 297.613C356.5 297.613 352.5 289.613 344.5 293.613L289.5 263.613Z" fill="#1976D2"/>
<path d="M352.5 364.613L360.5 343.613C360.5 343.613 378.5 320.613 368.5 309.613C358.5 298.613 347.5 341.613 347.5 341.613L352.5 364.613Z" fill="#A0616A"/>
<path d="M260.198 361.262L277.654 347.11C277.654 347.11 304.764 336.245 301.633 321.713C298.501 307.18 267.412 338.858 267.412 338.858L260.198 361.262Z" fill="#A0616A"/>
<path opacity="0.1" d="M217 260.113H216C216 260.113 200.5 241.613 197.5 266.613C194.5 291.613 184.5 374.613 210.5 377.613C236.5 380.613 255 365.113 255 365.113C255 365.113 274 336.113 267 336.113C263.613 336.113 254.402 334.592 246 335.113C237.037 335.669 228.984 338.194 229.5 335.613C230.5 330.613 245 267.113 217 260.113Z" fill="black"/>
<path d="M215.5 240.613L211.5 238.613C211.5 238.613 195.5 241.613 192.5 266.613C189.5 291.613 179.5 374.613 205.5 377.613C231.5 380.613 266.5 373.613 266.5 373.613C266.5 373.613 273.5 335.613 266.5 335.613C259.5 335.613 223.5 340.613 224.5 335.613C225.5 330.613 243.5 247.613 215.5 240.613Z" fill="#575A89"/>
<path d="M338 353.114L349.027 336.213L356 364.114L338 372.114V353.114Z" fill="#575A89"/>
<path d="M111.473 112.114C126.385 112.114 138.473 100.025 138.473 85.1138C138.473 70.2021 126.385 58.1138 111.473 58.1138C96.5615 58.1138 84.4731 70.2021 84.4731 85.1138C84.4731 100.025 96.5615 112.114 111.473 112.114Z" fill="#3939AA"/>
<path d="M143.473 286.113H79.4731V350.113H143.473V286.113Z" fill="#0C0C12"/>
<path d="M372 0L388.199 28.057L404.397 56.114H372H339.603L355.801 28.057L372 0Z" fill="#FFCF00"/>
</g>
<defs>
<clipPath id="clip0_251_7466">
<rect width="654.237" height="682.114" fill="white"/>
</clipPath>
</defs>
</svg>
