<svg width="816" height="575" viewBox="0 0 816 575" fill="none" xmlns="http://www.w3.org/2000/svg">
<g clip-path="url(#clip0_251_7502)">
<path d="M406.793 264.5C421.153 264.5 432.793 252.859 432.793 238.5C432.793 224.141 421.153 212.5 406.793 212.5C392.434 212.5 380.793 224.141 380.793 238.5C380.793 252.859 392.434 264.5 406.793 264.5Z" fill="#1976D2"/>
<path d="M122.793 34.19V281.81C122.801 287.826 125.194 293.593 129.447 297.846C133.701 302.1 139.468 304.493 145.483 304.5H793.103C799.119 304.493 804.886 302.1 809.14 297.846C813.393 293.593 815.786 287.826 815.793 281.81V34.19C815.786 28.1745 813.393 22.4074 809.14 18.1538C804.886 13.9001 799.119 11.5072 793.103 11.5H145.483C139.468 11.5072 133.701 13.9001 129.447 18.1537C125.194 22.4074 122.801 28.1745 122.793 34.19ZM124.793 34.19C124.793 28.7027 126.973 23.4401 130.853 19.56C134.734 15.6798 139.996 13.5 145.483 13.5H658.118C699.406 13.5 739.002 29.9015 768.197 59.0963C797.392 88.2911 813.793 127.888 813.793 169.176V281.81C813.793 287.297 811.614 292.56 807.734 296.44C803.853 300.32 798.591 302.5 793.103 302.5H145.483C139.996 302.5 134.734 300.32 130.853 296.44C126.973 292.56 124.793 287.297 124.793 281.81V34.19Z" fill="#3F3D56"/>
<path d="M130.261 555.88L144.768 555.879L151.669 499.923L130.258 499.925L130.261 555.88Z" fill="#FFB6B6"/>
<path d="M129.75 571.014L174.361 571.012V570.448C174.36 565.843 172.531 561.426 169.275 558.17C166.018 554.914 161.602 553.085 156.997 553.084H156.996L148.847 546.902L133.644 553.085L129.75 553.085L129.75 571.014Z" fill="#2F2E41"/>
<path d="M66.9791 555.88L81.4861 555.879L88.3871 499.923L66.9761 499.925L66.9791 555.88Z" fill="#FFB6B6"/>
<path d="M66.4685 571.014L111.079 571.012V570.448C111.079 565.843 109.249 561.426 105.993 558.17C102.737 554.914 98.3204 553.085 93.7154 553.084H93.7143L85.5656 546.902L70.362 553.085L66.4678 553.085L66.4685 571.014Z" fill="#2F2E41"/>
<path d="M166.381 250.993C166.381 250.993 180.339 293.861 177.763 299.504C175.186 305.146 170.791 300.75 175.186 305.146C179.582 309.541 183.419 304.869 179.303 312.333C175.186 319.798 168.95 381.247 166.208 384.222C163.465 387.196 159.694 387.276 163.045 390.166C166.395 393.057 170.791 387.196 166.395 393.057C162 398.918 150.336 534.119 150.336 534.119H127.551C127.551 534.119 121.876 527.577 125.088 523.32C128.3 519.063 124.806 517.422 125.088 514.579C125.37 511.737 124.302 505.609 124.103 502.812C123.905 500.016 120.054 433.395 129.305 394.911L112.436 321.634L92.0011 410.199C92.0011 410.199 101.401 484.487 92.0011 508.368C92.0011 508.368 99.5796 514.679 96.2185 518.336C92.8575 521.993 89.9271 519.063 92.8575 521.993C95.7879 524.924 88.462 535.18 88.462 535.18L63.5537 533.715L49.4557 394.911C49.4557 394.911 47.0791 380.435 49.4557 377.955C51.8323 375.475 51.8323 384.266 51.8323 375.475V363.753C51.8323 363.753 53.2089 291.659 53.3924 287.413C53.576 283.168 71.1582 252.399 71.1582 252.399L166.381 250.993Z" fill="#2F2E41"/>
<path d="M166.174 102.93V187.46C163.445 195.645 162.037 204.212 162.004 212.84C162.094 227.21 165.254 243.77 165.244 251.01C165.286 251.97 165.181 252.931 164.934 253.86C150.944 294.41 76.9138 257.56 70.1838 254.11C69.8638 253.95 69.6938 253.86 69.6938 253.86L71.1538 208.44L70.9038 195.38L69.1738 105.79L70.7238 104.55L84.3038 93.72L85.6338 92.66L89.7138 98.61L126.084 96.11L139.964 92.27L144.294 94.03L163.814 101.97L166.174 102.93Z" fill="#1976D2"/>
<path d="M292.928 169.355L267.441 160.929L260.596 174.817L287.859 182.767C288.751 184.182 290.019 185.319 291.521 186.053C293.023 186.786 294.7 187.086 296.364 186.918C298.027 186.75 299.611 186.122 300.936 185.104C302.262 184.085 303.278 182.718 303.869 181.154C304.46 179.59 304.603 177.892 304.282 176.252C303.961 174.611 303.189 173.093 302.052 171.867C300.915 170.641 299.459 169.756 297.847 169.313C296.236 168.869 294.532 168.884 292.928 169.355Z" fill="#FFB6B6"/>
<path d="M141.485 94.7075L141.379 95.1294C139.388 103.097 136.845 125.855 142.294 132C149.291 139.901 205.81 164.021 217.039 162.056C225.747 160.532 223.954 161.043 228.121 165.378C232.287 169.713 225.372 170.725 234.666 171.484C243.96 172.242 244.145 168.683 246.136 172.63C248.126 176.577 246.356 178.956 252.681 178.736C259.006 178.516 260.592 179.697 262.768 180.085C264.944 180.473 278.607 186.949 278.607 186.949C278.607 186.949 284.088 171.312 290.986 165.358C290.986 165.358 275.164 163.436 273.967 160.079C272.769 156.723 273.747 153.754 269.598 154.361C265.448 154.969 263.289 159.523 263.863 153.788C264.436 148.053 234.546 136.888 234.546 136.888C216.507 119.128 179.446 106.79 141.485 94.7075Z" fill="#1976D2"/>
<path d="M60.6203 271.251L59.4641 244.432L44.0513 242.955L46.2825 271.266C45.2759 272.601 44.6615 274.19 44.5085 275.855C44.3554 277.519 44.6698 279.194 45.4162 280.689C46.1626 282.185 47.3115 283.443 48.7336 284.322C50.1558 285.201 51.7948 285.665 53.4666 285.664C55.1383 285.662 56.7764 285.194 58.1967 284.312C59.617 283.43 60.7632 282.17 61.5064 280.673C62.2497 279.175 62.5605 277.5 62.4039 275.836C62.2474 274.171 61.6297 272.584 60.6203 271.251Z" fill="#FFB6B6"/>
<path d="M76.7319 103.18L76.3 103.231C72.2825 103.705 68.441 105.151 65.1082 107.444C61.7755 109.737 59.0518 112.808 57.173 116.39C52.2657 125.734 36.7409 189.018 40.5422 197.702C44.0872 205.802 43.9405 203.81 41.3644 209.243C38.7882 214.675 35.3899 208.568 37.9755 217.527C40.5611 226.487 43.9547 225.398 40.9698 228.659C37.985 231.919 35.1332 231.106 37.5809 236.943C40.0286 242.78 39.4868 244.681 39.8955 246.853C40.3043 249.025 39.0922 264.097 39.0922 264.097C39.0922 264.097 55.6563 263.679 63.6698 268.018C63.6698 268.018 59.8579 252.542 62.5719 250.233C65.2859 247.923 68.4086 247.785 66.3696 244.12C64.3306 240.456 59.3066 240.052 64.8724 238.554C70.4382 237.057 70.2814 205.151 70.2814 205.151L76.7319 103.18Z" fill="#1976D2"/>
<path d="M116.444 69C115.794 69.15 115.144 69.28 114.494 69.38C112.508 69.7061 110.492 69.8101 108.484 69.69C103.251 69.409 98.1993 67.6844 93.8876 64.7072C89.5758 61.7301 86.1729 57.6169 84.0562 52.8238C81.9395 48.0306 81.1918 42.7449 81.896 37.5527C82.6002 32.3605 84.7288 27.4649 88.0456 23.4086C91.3625 19.3524 95.738 16.2941 100.687 14.573C105.636 12.8519 110.965 12.5351 116.083 13.6579C121.201 14.7807 125.908 17.2991 129.682 20.9339C133.456 24.5687 136.149 29.1777 137.464 34.25C137.524 34.48 137.584 34.7 137.634 34.93C139.34 42.2578 138.066 49.9632 134.093 56.3522C130.119 62.7411 123.771 67.2904 116.444 69Z" fill="#FFB6B6"/>
<path d="M90.2616 65.6524C86.316 62.5645 85.933 56.6789 82.5661 52.9687C76.9367 46.7655 74.2919 40.0917 77.2407 32.7414C79.849 26.2403 79.2946 18.2488 84.9121 14.0642C82.1531 13.0654 81.5038 10.9913 83.9382 10.953C85.5798 10.9272 91.6996 14.0647 88.7549 10.1562C85.8102 6.24773 91.3843 7.79051 91.0156 6.19063C90.6469 4.59075 88.2827 3.70462 87.24 4.97282C90.569 1.07221 97.8388 1.90382 100.201 6.45543C103.519 1.48271 107.041 -1.93899 112.118 1.21669C117.105 4.31604 117.04 8.14728 122.402 7.22653C124.923 6.7937 125.161 11.5565 126.884 13.4477C128.606 15.3389 131.123 16.8026 133.637 16.3276C136.15 15.8526 138.072 12.7204 136.663 10.5852L142.587 24.0995L144.975 21.171C148.768 23.6433 147.522 30.0944 143.704 32.5279C139.885 34.9613 132.597 29.3369 130.525 33.3627C127.259 39.7089 119.595 36.5043 114.333 32.0195C107.951 26.5805 100.248 43.1178 103.322 50.9184C100.132 47.7862 94.2316 50.3855 92.5792 54.5394C90.9268 58.6932 92.1385 63.3732 93.3634 67.6726L90.2616 65.6524Z" fill="#2F2E41"/>
<path d="M484.419 159.027H454.401C453.622 159.026 452.876 158.716 452.325 158.166C451.774 157.615 451.464 156.868 451.463 156.089V126.438C451.464 125.659 451.774 124.912 452.325 124.361C452.876 123.811 453.622 123.501 454.401 123.5H484.419C485.198 123.501 485.945 123.811 486.495 124.361C487.046 124.912 487.356 125.659 487.357 126.438V156.089C487.356 156.868 487.046 157.615 486.495 158.166C485.945 158.716 485.198 159.026 484.419 159.027Z" fill="#F2F2F2"/>
<path d="M489.417 161.526H459.399C458.62 161.525 457.873 161.215 457.322 160.664C456.772 160.113 456.462 159.367 456.461 158.588V128.936C456.462 128.157 456.772 127.411 457.322 126.86C457.873 126.309 458.62 125.999 459.399 125.999H489.416C490.195 125.999 490.942 126.309 491.493 126.86C492.044 127.411 492.353 128.157 492.354 128.936V158.588C492.353 159.367 492.044 160.113 491.493 160.664C490.942 161.215 490.195 161.525 489.417 161.526Z" fill="#F2F2F2"/>
<path d="M455.03 124.375C454.317 124.375 453.632 124.659 453.127 125.164C452.622 125.669 452.339 126.353 452.339 127.067V155.46C452.339 156.174 452.622 156.859 453.127 157.364C453.632 157.868 454.317 158.152 455.03 158.152H473.385C476.859 158.152 480.19 156.772 482.646 154.316C485.102 151.86 486.481 148.529 486.481 145.056V127.067C486.481 126.353 486.198 125.669 485.693 125.164C485.188 124.659 484.504 124.375 483.79 124.375H455.03Z" fill="white"/>
<path d="M477.45 132.992H461.308C461.16 132.992 461.018 132.933 460.913 132.828C460.808 132.724 460.749 132.582 460.749 132.434C460.749 132.285 460.808 132.143 460.913 132.039C461.018 131.934 461.16 131.875 461.308 131.875H477.45C477.598 131.875 477.74 131.934 477.845 132.039C477.95 132.143 478.008 132.285 478.008 132.434C478.008 132.582 477.95 132.724 477.845 132.828C477.74 132.933 477.598 132.992 477.45 132.992Z" fill="#F2F2F2"/>
<path d="M477.45 144.902H461.308C461.16 144.902 461.018 144.843 460.913 144.738C460.808 144.633 460.749 144.491 460.749 144.343C460.749 144.195 460.808 144.053 460.913 143.948C461.018 143.844 461.16 143.785 461.308 143.785H477.45C477.598 143.785 477.74 143.844 477.845 143.948C477.95 144.053 478.008 144.195 478.008 144.343C478.008 144.491 477.95 144.633 477.845 144.738C477.74 144.843 477.598 144.902 477.45 144.902Z" fill="#F2F2F2"/>
<path d="M484.005 138.951H454.753C454.605 138.951 454.463 138.892 454.358 138.787C454.253 138.683 454.194 138.541 454.194 138.392C454.194 138.244 454.253 138.102 454.358 137.998C454.463 137.893 454.605 137.834 454.753 137.834H484.005C484.153 137.834 484.295 137.893 484.4 137.998C484.505 138.102 484.563 138.244 484.563 138.392C484.563 138.541 484.505 138.683 484.4 138.787C484.295 138.892 484.153 138.951 484.005 138.951Z" fill="#F2F2F2"/>
<path d="M484.303 149.744H473.736C473.588 149.744 473.446 149.686 473.341 149.581C473.236 149.476 473.177 149.334 473.177 149.186C473.177 149.038 473.236 148.896 473.341 148.791C473.446 148.686 473.588 148.627 473.736 148.627H484.303C484.452 148.627 484.594 148.686 484.698 148.791C484.803 148.896 484.862 149.038 484.862 149.186C484.862 149.334 484.803 149.476 484.698 149.581C484.594 149.686 484.452 149.744 484.303 149.744Z" fill="#F2F2F2"/>
<path d="M393.89 177.589L393.5 177.396C370.722 166.135 346.08 166.145 318.168 177.427L317.419 175.573C345.73 164.131 370.785 164.077 393.995 175.411C426.658 162.981 447.656 141.914 456.411 112.787L458.327 113.363C449.346 143.237 427.803 164.794 394.296 177.436L393.89 177.589Z" fill="#F2F2F2"/>
<path d="M488.911 177.589L488.519 177.405C466.132 166.902 441.476 166.912 413.142 177.438L412.445 175.562C441.14 164.903 466.18 164.851 488.975 175.411C525.546 160.799 546.542 139.769 551.384 112.898L553.353 113.252C548.361 140.946 526.815 162.539 489.313 177.429L488.911 177.589Z" fill="#F2F2F2"/>
<path d="M563.796 176.525L563.549 176.418C545.103 168.489 521.104 168.505 488.028 176.472L487.559 174.528C520.93 166.491 545.259 166.471 564.09 174.475C601.469 169.904 621.846 149.451 626.375 111.955L628.362 112.195C623.694 150.829 602.661 171.861 564.063 176.493L563.796 176.525Z" fill="#F2F2F2"/>
<path d="M465.793 117.5C470.212 117.5 473.793 113.918 473.793 109.5C473.793 105.082 470.212 101.5 465.793 101.5C461.375 101.5 457.793 105.082 457.793 109.5C457.793 113.918 461.375 117.5 465.793 117.5Z" fill="#1976D2"/>
<path d="M555.794 117.5C560.212 117.5 563.794 113.918 563.794 109.5C563.794 105.082 560.212 101.5 555.794 101.5C551.375 101.5 547.794 105.082 547.794 109.5C547.794 113.918 551.375 117.5 555.794 117.5Z" fill="#1976D2"/>
<path d="M627.794 116.5C632.212 116.5 635.794 112.918 635.794 108.5C635.794 104.082 632.212 100.5 627.794 100.5C623.375 100.5 619.794 104.082 619.794 108.5C619.794 112.918 623.375 116.5 627.794 116.5Z" fill="#1976D2"/>
<path d="M404.785 238.526H320.693C318.511 238.523 316.419 237.656 314.877 236.113C313.334 234.57 312.466 232.478 312.463 230.296V147.23C312.466 145.048 313.334 142.956 314.877 141.413C316.419 139.87 318.511 139.002 320.693 139H404.785C406.967 139.002 409.059 139.87 410.602 141.413C412.145 142.956 413.013 145.048 413.015 147.23V230.296C413.013 232.478 412.145 234.57 410.602 236.113C409.059 237.656 406.967 238.523 404.785 238.526Z" fill="#E6E6E6"/>
<path d="M390.785 231.526H306.693C304.511 231.523 302.419 230.656 300.877 229.113C299.334 227.57 298.466 225.478 298.463 223.296V140.23C298.466 138.048 299.334 135.956 300.877 134.413C302.419 132.87 304.511 132.002 306.693 132H390.785C392.967 132.002 395.059 132.87 396.602 134.413C398.145 135.956 399.013 138.048 399.015 140.23V223.296C399.013 225.478 398.145 227.57 396.602 229.113C395.059 230.656 392.967 231.523 390.785 231.526Z" fill="#E6E6E6"/>
<path d="M322.354 134.452C316.668 134.452 311.215 136.711 307.195 140.731C303.174 144.752 300.916 150.205 300.916 155.891V221.534C300.916 222.524 301.111 223.504 301.489 224.419C301.868 225.334 302.424 226.165 303.124 226.865C303.824 227.565 304.655 228.121 305.57 228.5C306.485 228.879 307.466 229.074 308.456 229.074H359.876C364.693 229.074 369.464 228.125 373.915 226.281C378.366 224.437 382.411 221.735 385.817 218.328C389.224 214.922 391.927 210.877 393.77 206.426C395.614 201.975 396.563 197.204 396.563 192.386V141.992C396.563 139.993 395.769 138.075 394.354 136.661C392.94 135.247 391.023 134.452 389.023 134.452H322.354Z" fill="white"/>
<path d="M371.262 158.591H326.041C325.626 158.591 325.228 158.427 324.935 158.133C324.641 157.84 324.477 157.442 324.477 157.027C324.477 156.612 324.641 156.214 324.935 155.921C325.228 155.627 325.626 155.462 326.041 155.462H371.262C371.677 155.462 372.075 155.627 372.368 155.921C372.661 156.214 372.826 156.612 372.826 157.027C372.826 157.442 372.661 157.84 372.368 158.133C372.075 158.427 371.677 158.591 371.262 158.591Z" fill="#E6E6E6"/>
<path d="M371.262 191.955H326.041C325.835 191.956 325.632 191.916 325.441 191.837C325.251 191.759 325.078 191.644 324.932 191.498C324.787 191.353 324.671 191.18 324.592 190.99C324.513 190.8 324.473 190.597 324.473 190.391C324.473 190.185 324.513 189.981 324.592 189.791C324.671 189.601 324.787 189.428 324.932 189.283C325.078 189.138 325.251 189.023 325.441 188.944C325.632 188.866 325.835 188.826 326.041 188.826H371.262C371.676 188.827 372.073 188.993 372.366 189.286C372.658 189.579 372.822 189.976 372.822 190.391C372.822 190.805 372.658 191.202 372.366 191.496C372.073 191.789 371.676 191.954 371.262 191.955Z" fill="#E6E6E6"/>
<path d="M389.625 175.284H307.678C307.263 175.284 306.865 175.12 306.572 174.826C306.278 174.533 306.113 174.135 306.113 173.72C306.113 173.305 306.278 172.907 306.572 172.613C306.865 172.32 307.263 172.155 307.678 172.155H389.625C390.04 172.155 390.438 172.32 390.731 172.613C391.024 172.907 391.189 173.305 391.189 173.72C391.189 174.135 391.024 174.533 390.731 174.826C390.438 175.12 390.04 175.284 389.625 175.284Z" fill="#E6E6E6"/>
<path d="M390.462 205.521H360.858C360.653 205.521 360.449 205.48 360.259 205.402C360.069 205.323 359.897 205.208 359.752 205.062C359.606 204.917 359.491 204.745 359.413 204.555C359.334 204.365 359.293 204.162 359.293 203.956C359.293 203.751 359.334 203.547 359.413 203.357C359.491 203.168 359.606 202.995 359.752 202.85C359.897 202.705 360.069 202.589 360.259 202.511C360.449 202.432 360.653 202.392 360.858 202.392H390.462C390.877 202.392 391.275 202.556 391.568 202.85C391.861 203.143 392.026 203.541 392.026 203.956C392.026 204.371 391.861 204.769 391.568 205.062C391.275 205.356 390.877 205.521 390.462 205.521Z" fill="#E6E6E6"/>
<path d="M590.419 155.027H560.401C559.622 155.026 558.876 154.716 558.325 154.166C557.774 153.615 557.464 152.868 557.463 152.089V122.438C557.464 121.659 557.774 120.912 558.325 120.361C558.876 119.811 559.622 119.501 560.401 119.5H590.419C591.198 119.501 591.945 119.811 592.495 120.361C593.046 120.912 593.356 121.659 593.357 122.438V152.089C593.356 152.868 593.046 153.615 592.495 154.166C591.945 154.716 591.198 155.026 590.419 155.027Z" fill="#F2F2F2"/>
<path d="M595.417 157.526H565.399C564.62 157.525 563.873 157.215 563.322 156.664C562.772 156.113 562.462 155.367 562.461 154.588V124.936C562.462 124.157 562.772 123.411 563.322 122.86C563.873 122.309 564.62 121.999 565.399 121.999H595.416C596.195 121.999 596.942 122.309 597.493 122.86C598.044 123.411 598.353 124.157 598.354 124.936V154.588C598.353 155.367 598.044 156.113 597.493 156.664C596.942 157.215 596.195 157.525 595.417 157.526Z" fill="#F2F2F2"/>
<path d="M561.03 120.375C560.317 120.375 559.632 120.659 559.127 121.164C558.622 121.669 558.339 122.353 558.339 123.067V151.46C558.339 152.174 558.622 152.859 559.127 153.364C559.632 153.868 560.317 154.152 561.03 154.152H579.385C582.859 154.152 586.19 152.772 588.646 150.316C591.102 147.86 592.481 144.529 592.481 141.056V123.067C592.481 122.353 592.198 121.669 591.693 121.164C591.188 120.659 590.504 120.375 589.79 120.375H561.03Z" fill="white"/>
<path d="M583.45 128.992H567.308C567.159 128.992 567.017 128.933 566.913 128.828C566.808 128.724 566.749 128.582 566.749 128.434C566.749 128.285 566.808 128.143 566.913 128.039C567.017 127.934 567.159 127.875 567.308 127.875H583.45C583.598 127.875 583.74 127.934 583.845 128.039C583.949 128.143 584.008 128.285 584.008 128.434C584.008 128.582 583.949 128.724 583.845 128.828C583.74 128.933 583.598 128.992 583.45 128.992Z" fill="#F2F2F2"/>
<path d="M583.45 140.902H567.308C567.159 140.902 567.017 140.843 566.913 140.738C566.808 140.633 566.749 140.491 566.749 140.343C566.749 140.195 566.808 140.053 566.913 139.948C567.017 139.844 567.159 139.785 567.308 139.785H583.45C583.598 139.785 583.74 139.844 583.845 139.948C583.949 140.053 584.008 140.195 584.008 140.343C584.008 140.491 583.949 140.633 583.845 140.738C583.74 140.843 583.598 140.902 583.45 140.902Z" fill="#F2F2F2"/>
<path d="M590.005 134.951H560.753C560.605 134.951 560.463 134.892 560.358 134.787C560.253 134.683 560.194 134.541 560.194 134.392C560.194 134.244 560.253 134.102 560.358 133.998C560.463 133.893 560.605 133.834 560.753 133.834H590.005C590.153 133.834 590.295 133.893 590.4 133.998C590.505 134.102 590.563 134.244 590.563 134.392C590.563 134.541 590.505 134.683 590.4 134.787C590.295 134.892 590.153 134.951 590.005 134.951Z" fill="#F2F2F2"/>
<path d="M590.303 145.744H579.736C579.588 145.744 579.446 145.686 579.341 145.581C579.236 145.476 579.177 145.334 579.177 145.186C579.177 145.038 579.236 144.896 579.341 144.791C579.446 144.686 579.588 144.627 579.736 144.627H590.303C590.452 144.627 590.594 144.686 590.698 144.791C590.803 144.896 590.862 145.038 590.862 145.186C590.862 145.334 590.803 145.476 590.698 145.581C590.594 145.686 590.452 145.744 590.303 145.744Z" fill="#F2F2F2"/>
<path d="M246.31 557.175C245.845 557.197 245.385 557.075 244.992 556.826C244.599 556.577 244.292 556.213 244.112 555.784C243.933 555.355 243.89 554.881 243.989 554.426C244.087 553.971 244.324 553.558 244.665 553.242L244.821 552.624C244.801 552.574 244.78 552.525 244.759 552.476C244.291 551.369 243.506 550.426 242.504 549.765C241.501 549.103 240.326 548.753 239.125 548.757C237.924 548.762 236.751 549.121 235.753 549.79C234.755 550.459 233.978 551.408 233.518 552.517C231.679 556.945 229.338 561.381 228.762 566.063C228.508 568.133 228.615 570.231 229.078 572.264C224.76 562.844 222.518 552.605 222.503 542.243C222.502 539.643 222.647 537.044 222.936 534.46C223.175 532.341 223.507 530.238 223.931 528.15C226.245 516.818 231.215 506.198 238.431 497.16C241.924 495.254 244.748 492.324 246.524 488.764C247.167 487.484 247.622 486.117 247.874 484.707C247.48 484.759 246.388 478.759 246.685 478.391C246.136 477.557 245.154 477.143 244.554 476.33C241.572 472.287 237.463 472.993 235.318 478.487C230.736 480.8 230.691 484.636 233.503 488.324C235.292 490.671 235.537 493.847 237.107 496.359C236.945 496.566 236.777 496.766 236.616 496.973C233.664 500.768 231.092 504.844 228.935 509.141C229.459 504.327 228.833 499.457 227.109 494.932C225.36 490.714 222.084 487.163 219.198 483.517C218.435 482.537 217.398 481.806 216.22 481.416C215.041 481.025 213.773 480.993 212.576 481.323C211.379 481.653 210.307 482.33 209.495 483.27C208.683 484.209 208.168 485.368 208.014 486.6C208.008 486.654 208.002 486.708 207.997 486.761C208.425 487.003 208.845 487.26 209.255 487.531C209.771 487.876 210.171 488.368 210.402 488.944C210.633 489.519 210.685 490.151 210.551 490.756C210.417 491.362 210.103 491.913 209.65 492.337C209.197 492.761 208.627 493.038 208.014 493.133L207.952 493.143C208.104 494.687 208.374 496.218 208.759 497.722C205.057 512.038 213.049 517.252 224.46 517.486C224.712 517.615 224.958 517.744 225.21 517.867C223.043 524.008 221.684 530.404 221.166 536.895C220.874 540.725 220.891 544.571 221.218 548.398L221.199 548.263C220.372 544.007 218.102 540.168 214.772 537.392C209.826 533.33 202.839 531.834 197.504 528.568C196.937 528.204 196.278 528.01 195.604 528.008C194.93 528.006 194.27 528.197 193.701 528.559C193.132 528.92 192.678 529.436 192.393 530.047C192.108 530.658 192.004 531.337 192.093 532.005L192.114 532.148C192.91 532.472 193.684 532.845 194.433 533.265C194.862 533.507 195.281 533.764 195.692 534.035C196.208 534.38 196.607 534.872 196.838 535.447C197.069 536.023 197.121 536.655 196.987 537.26C196.853 537.866 196.539 538.417 196.086 538.841C195.634 539.265 195.064 539.542 194.451 539.637L194.388 539.646C194.343 539.653 194.304 539.659 194.259 539.666C195.618 542.911 197.525 545.897 199.897 548.495C202.212 560.992 212.153 562.178 222.788 558.539H222.794C223.961 563.609 225.651 568.544 227.838 573.265H245.859C245.923 573.065 245.981 572.858 246.04 572.658C244.372 572.763 242.697 572.663 241.053 572.361C242.39 570.72 243.727 569.067 245.064 567.426C245.094 567.395 245.122 567.363 245.148 567.329C245.826 566.49 246.511 565.656 247.189 564.817L247.19 564.816C247.226 562.242 246.93 559.674 246.31 557.175Z" fill="#F2F2F2"/>
<path d="M5.26985e-06 573.318C-0.000460806 573.475 0.029993 573.63 0.0896354 573.774C0.149278 573.919 0.236922 574.05 0.347524 574.161C0.458126 574.272 0.58951 574.359 0.734106 574.419C0.878702 574.478 1.03366 574.509 1.19007 574.508H254.48C254.796 574.508 255.098 574.383 255.322 574.16C255.545 573.937 255.67 573.634 255.67 573.318C255.67 573.003 255.545 572.7 255.322 572.477C255.098 572.254 254.796 572.128 254.48 572.128H1.19007C1.03366 572.128 0.878699 572.158 0.734106 572.218C0.589512 572.278 0.45814 572.365 0.347539 572.476C0.236938 572.587 0.149295 572.718 0.0896507 572.862C0.0300064 573.007 -0.000455497 573.162 5.26985e-06 573.318Z" fill="#CCCCCC"/>
<path d="M108.483 69.6899L114.493 69.3799C112.508 69.706 110.492 69.81 108.483 69.6899Z" fill="#F2F2F2"/>
<path d="M144.294 94.0299L143.304 95.2899L140.644 98.6699L117.674 127.88L84.3042 93.7199L85.6342 92.6599L92.7142 77.6099L129.084 75.1099L139.964 92.2699L144.294 94.0299Z" fill="#3F3D56"/>
</g>
<defs>
<clipPath id="clip0_251_7502">
<rect width="815.794" height="574.508" fill="white"/>
</clipPath>
</defs>
</svg>
