<svg width="123" height="113" viewBox="0 0 123 113" fill="none" xmlns="http://www.w3.org/2000/svg">
<path fill-rule="evenodd" clip-rule="evenodd" d="M33.1253 29.5414C32.9037 29.5388 32.7007 29.4846 32.5161 29.3786C32.327 29.2701 32.1741 29.1235 32.0573 28.939C31.946 28.749 31.8904 28.5427 31.8904 28.3202C31.8904 28.0922 31.946 27.8859 32.0573 27.7014C32.1741 27.5168 32.327 27.3703 32.5161 27.2617C32.7053 27.1531 32.9138 27.0989 33.1419 27.0989H33.4256C33.5424 27.0989 33.662 27.0907 33.7843 27.0744C33.9122 27.0527 34.0291 27.0147 34.1347 26.9604C34.246 26.9062 34.3294 26.8275 34.385 26.7243V28.3202C34.385 28.3906 34.3795 28.4593 34.3683 28.5265V28.7273H36.1041V26.4638L36.9384 26.2847V27.0989H41.1935C41.5383 27.0989 41.8136 27.145 42.0194 27.2373C42.2308 27.3296 42.3893 27.4544 42.495 27.6118C42.6062 27.7692 42.6813 27.9456 42.7203 28.141C42.7592 28.3365 42.7787 28.54 42.7787 28.7517V29.3542C42.7787 29.4193 42.7509 29.4655 42.6952 29.4926C42.6396 29.5198 42.584 29.5361 42.5284 29.5415H33.1419L33.1253 29.5414ZM36.9384 28.7273H41.9444C41.9499 28.4993 41.9026 28.3066 41.8025 28.1492C41.708 27.9918 41.5049 27.9131 41.1935 27.9131H36.9384V28.7273ZM33.1419 28.7273C33.2587 28.7273 33.356 28.6893 33.4339 28.6133C33.5173 28.5319 33.5591 28.4342 33.5591 28.3202C33.5591 28.2062 33.5173 28.1112 33.4339 28.0352C33.356 27.9538 33.2587 27.9131 33.1419 27.9131C33.0251 27.9131 32.925 27.9538 32.8415 28.0352C32.7637 28.1112 32.7247 28.2062 32.7247 28.3202C32.7247 28.4342 32.7637 28.5319 32.8415 28.6133C32.925 28.6893 33.0251 28.7273 33.1419 28.7273Z" fill="black"/>
<path d="M33.5507 26.936V25.902L34.385 25.5112V26.4964C34.335 26.5886 34.2627 26.6673 34.1681 26.7325C34.0791 26.7922 33.979 26.841 33.8678 26.879C33.7621 26.9116 33.6564 26.9306 33.5507 26.936Z" fill="black"/>
<path d="M33.5507 25.7391V23.207L34.385 23.0278V25.3483L33.5507 25.7391Z" fill="black"/>
<path d="M32.5487 24.5585C32.4152 24.5585 32.3012 24.5124 32.2066 24.4201C32.112 24.3279 32.0648 24.2166 32.0648 24.0863C32.0648 23.956 32.112 23.8448 32.2066 23.7525C32.3012 23.6602 32.4152 23.6141 32.5487 23.6141C32.6822 23.6141 32.7962 23.6602 32.8907 23.7525C32.9853 23.8448 33.0326 23.956 33.0326 24.0863C33.0326 24.2166 32.9853 24.3279 32.8907 24.4201C32.7962 24.5124 32.6822 24.5585 32.5487 24.5585Z" fill="black"/>
<path d="M32.5487 25.9427C32.4152 25.9427 32.3012 25.8966 32.2066 25.8043C32.112 25.712 32.0648 25.6007 32.0648 25.4705C32.0648 25.3402 32.112 25.2289 32.2066 25.1366C32.3012 25.0444 32.4152 24.9982 32.5487 24.9982C32.6822 24.9982 32.7962 25.0444 32.8907 25.1366C32.9853 25.2289 33.0326 25.3402 33.0326 25.4705C33.0326 25.6007 32.9853 25.712 32.8907 25.8043C32.7962 25.8966 32.6822 25.9427 32.5487 25.9427Z" fill="black"/>
<path d="M43.4497 29.5415C43.3941 29.5361 43.3385 29.5198 43.2829 29.4926C43.2272 29.4655 43.1994 29.4193 43.1994 29.3542V23.207L44.0338 23.0278V28.7273H46.3082C46.1914 28.6621 46.069 28.559 45.9411 28.4179C45.8187 28.2767 45.7242 28.1546 45.6574 28.0515L46.1246 27.1803C46.3193 27.4788 46.5362 27.7448 46.7754 27.9782C46.8536 28.0527 46.9325 28.1223 47.0124 28.1868C47.1626 28.1572 47.2743 28.1066 47.3475 28.0352C47.431 27.9538 47.4838 27.8506 47.506 27.7258C47.5227 27.5955 47.5311 27.4517 47.5311 27.2943V23.207L48.3654 23.0278V27.0989C48.3654 27.4245 48.3209 27.6742 48.2319 27.8479C48.1373 28.0162 48.0205 28.1329 47.8815 28.198C47.7424 28.2577 47.6034 28.2876 47.4643 28.2876C47.3586 28.2876 47.2557 28.2767 47.1556 28.255C47.1241 28.2469 47.0957 28.2395 47.0706 28.2329C47.2222 28.3503 47.3769 28.45 47.5347 28.5319C47.8016 28.6621 48.0686 28.7273 48.3356 28.7273H50.3714L49.8708 29.5415H43.4497Z" fill="black"/>
<path d="M45.9436 25.8043C46.0382 25.8966 46.1522 25.9427 46.2857 25.9427C46.4192 25.9427 46.5332 25.8966 46.6278 25.8043C46.7223 25.712 46.7696 25.6007 46.7696 25.4705C46.7696 25.3402 46.7223 25.2289 46.6278 25.1366C46.5332 25.0444 46.4192 24.9982 46.2857 24.9982C46.1522 24.9982 46.0382 25.0444 45.9436 25.1366C45.8491 25.2289 45.8018 25.3402 45.8018 25.4705C45.8018 25.6007 45.8491 25.712 45.9436 25.8043Z" fill="black"/>
<path d="M52.4119 29.0692C52.3785 29.1887 52.3006 29.2918 52.1783 29.3786C52.0615 29.4601 51.9224 29.5171 51.7611 29.5496C51.6054 29.5822 51.4524 29.5822 51.3022 29.5496C51.1576 29.5171 51.0352 29.4492 50.9351 29.3461C50.835 29.2375 50.7849 29.0855 50.7849 28.8901V23.207L51.6193 23.0278V28.8901C51.6193 28.9878 51.6499 29.0584 51.711 29.1018C51.7722 29.1398 51.8473 29.1615 51.9363 29.1669C52.0253 29.1669 52.1143 29.1561 52.2033 29.1344C52.2923 29.1127 52.3618 29.091 52.4119 29.0692Z" fill="black"/>
<path d="M54.018 24.4201C54.1126 24.5124 54.2266 24.5585 54.3601 24.5585C54.4936 24.5585 54.6076 24.5124 54.7022 24.4201C54.7967 24.3279 54.844 24.2166 54.844 24.0863C54.844 23.956 54.7967 23.8448 54.7022 23.7525C54.6076 23.6602 54.4936 23.6141 54.3601 23.6141C54.2266 23.6141 54.1126 23.6602 54.018 23.7525C53.9235 23.8448 53.8762 23.956 53.8762 24.0863C53.8762 24.2166 53.9235 24.3279 54.018 24.4201Z" fill="black"/>
<path d="M54.018 25.8043C54.1126 25.8966 54.2266 25.9427 54.3601 25.9427C54.4936 25.9427 54.6076 25.8966 54.7022 25.8043C54.7967 25.712 54.844 25.6007 54.844 25.4705C54.844 25.3402 54.7967 25.2289 54.7022 25.1366C54.6076 25.0444 54.4936 24.9982 54.3601 24.9982C54.2266 24.9982 54.1126 25.0444 54.018 25.1366C53.9235 25.2289 53.8762 25.3402 53.8762 25.4705C53.8762 25.6007 53.9235 25.712 54.018 25.8043Z" fill="black"/>
<path fill-rule="evenodd" clip-rule="evenodd" d="M54.9367 29.5414C54.7151 29.5388 54.5121 29.4846 54.3276 29.3786C54.1384 29.2701 53.9855 29.1235 53.8687 28.939C53.7574 28.749 53.7018 28.5427 53.7018 28.3202C53.7018 28.0922 53.7574 27.8859 53.8687 27.7014C53.9855 27.5168 54.1384 27.3703 54.3276 27.2617C54.5167 27.1531 54.7253 27.0989 54.9533 27.0989H55.237C55.3538 27.0989 55.4734 27.0907 55.5957 27.0744C55.7237 27.0527 55.8405 27.0147 55.9462 26.9604C56.0574 26.9062 56.1408 26.8275 56.1965 26.7243V28.3202C56.1965 28.3906 56.1909 28.4593 56.1798 28.5264V28.7273H57.7903V27.278L58.6247 27.0989V28.7273H60.2917V27.278L61.126 27.0989V29.3542C61.126 29.4193 61.0982 29.4655 61.0426 29.4926C60.987 29.5198 60.9313 29.5361 60.8757 29.5415H54.9533L54.9367 29.5414ZM54.9533 28.7273C55.0701 28.7273 55.1674 28.6893 55.2453 28.6133C55.3288 28.5319 55.3705 28.4342 55.3705 28.3202C55.3705 28.2062 55.3288 28.1112 55.2453 28.0352C55.1674 27.9538 55.0701 27.9131 54.9533 27.9131C54.8365 27.9131 54.7364 27.9538 54.653 28.0352C54.5751 28.1112 54.5361 28.2062 54.5361 28.3202C54.5361 28.4342 54.5751 28.5319 54.653 28.6133C54.7364 28.6893 54.8365 28.7273 54.9533 28.7273Z" fill="black"/>
<path d="M55.3621 26.936V25.902L56.1965 25.5112V26.4964C56.1464 26.5886 56.0741 26.6673 55.9795 26.7325C55.8905 26.7922 55.7904 26.841 55.6792 26.879C55.5735 26.9116 55.4678 26.9306 55.3621 26.936Z" fill="black"/>
<path d="M55.3621 25.7391V23.207L56.1965 23.0278V25.3483L55.3621 25.7391Z" fill="black"/>
<path d="M58.0279 31.2323C58.1225 31.3246 58.2365 31.3707 58.37 31.3707C58.5035 31.3707 58.6175 31.3246 58.7121 31.2323C58.8066 31.14 58.8539 31.0288 58.8539 30.8985C58.8539 30.7682 58.8066 30.6569 58.7121 30.5647C58.6175 30.4724 58.5035 30.4263 58.37 30.4263C58.2365 30.4263 58.1225 30.4724 58.0279 30.5647C57.9334 30.6569 57.8861 30.7682 57.8861 30.8985C57.8861 31.0288 57.9334 31.14 58.0279 31.2323Z" fill="black"/>
<path d="M56.5845 31.2323C56.6791 31.3246 56.7931 31.3707 56.9266 31.3707C57.0601 31.3707 57.1741 31.3246 57.2687 31.2323C57.3633 31.14 57.4105 31.0288 57.4105 30.8985C57.4105 30.7682 57.3633 30.6569 57.2687 30.5647C57.1741 30.4724 57.0601 30.4263 56.9266 30.4263C56.7931 30.4263 56.6791 30.4724 56.5845 30.5647C56.49 30.6569 56.4427 30.7682 56.4427 30.8985C56.4427 31.0288 56.49 31.14 56.5845 31.2323Z" fill="black"/>
<path d="M62.107 30.4321C62.0812 30.4282 62.0545 30.4263 62.0271 30.4263C61.8936 30.4263 61.7796 30.4724 61.685 30.5647C61.6014 30.6463 61.5547 30.7428 61.5451 30.8542C61.4991 30.8611 61.4501 30.8659 61.3981 30.8686C61.1978 30.8795 60.9392 30.8442 60.6222 30.7628C60.7334 30.9148 60.8864 31.0315 61.081 31.1129C61.2701 31.1997 61.4732 31.2459 61.6901 31.2513L61.7058 31.2516C61.7962 31.331 61.9032 31.3707 62.0271 31.3707C62.1606 31.3707 62.2746 31.3246 62.3692 31.2323C62.426 31.1769 62.4657 31.1146 62.4884 31.0454C62.6146 30.9664 62.7212 30.8613 62.8081 30.7302C62.936 30.5511 63 30.3177 63 30.03V29.5415H68.1679C68.2235 29.5361 68.2792 29.5198 68.3348 29.4926C68.3904 29.4655 68.4182 29.4193 68.4182 29.3542V23.0278L67.5839 23.207V28.7273H65.9602V26.2847L65.1259 26.4638V27.7312L64.0413 26.5778L63.4906 27.3187L64.8195 28.7273H63V27.0989L62.1657 27.278V30.1114C62.1657 30.2183 62.1461 30.3252 62.107 30.4321Z" fill="black"/>
<path d="M70.459 29.0692C70.4257 29.1887 70.3478 29.2918 70.2254 29.3786C70.1086 29.4601 69.9696 29.5171 69.8083 29.5496C69.6525 29.5822 69.4996 29.5822 69.3494 29.5496C69.2048 29.5171 69.0824 29.4492 68.9823 29.3461C68.8822 29.2375 68.8321 29.0855 68.8321 28.8901V23.207L69.6664 23.0278V28.8901C69.6664 28.9878 69.697 29.0584 69.7582 29.1018C69.8194 29.1398 69.8945 29.1615 69.9835 29.1669C70.0725 29.1669 70.1615 29.1561 70.2505 29.1344C70.3395 29.1127 70.409 29.091 70.459 29.0692Z" fill="black"/>
<path d="M72.0652 24.4201C72.1597 24.5124 72.2738 24.5585 72.4073 24.5585C72.5408 24.5585 72.6548 24.5124 72.7493 24.4201C72.8439 24.3279 72.8912 24.2166 72.8912 24.0863C72.8912 23.956 72.8439 23.8448 72.7493 23.7525C72.6548 23.6602 72.5408 23.6141 72.4073 23.6141C72.2738 23.6141 72.1597 23.6602 72.0652 23.7525C71.9706 23.8448 71.9234 23.956 71.9234 24.0863C71.9234 24.2166 71.9706 24.3279 72.0652 24.4201Z" fill="black"/>
<path d="M72.0652 25.8043C72.1597 25.8966 72.2738 25.9427 72.4073 25.9427C72.5408 25.9427 72.6548 25.8966 72.7493 25.8043C72.8439 25.712 72.8912 25.6007 72.8912 25.4705C72.8912 25.3402 72.8439 25.2289 72.7493 25.1366C72.6548 25.0444 72.5408 24.9982 72.4073 24.9982C72.2738 24.9982 72.1597 25.0444 72.0652 25.1366C71.9706 25.2289 71.9234 25.3402 71.9234 25.4705C71.9234 25.6007 71.9706 25.712 72.0652 25.8043Z" fill="black"/>
<path fill-rule="evenodd" clip-rule="evenodd" d="M78.0902 28.7273L72.9839 29.5414C72.7623 29.5388 72.5592 29.4846 72.3747 29.3786C72.1856 29.2701 72.0327 29.1235 71.9159 28.939C71.8046 28.749 71.749 28.5427 71.749 28.3202C71.749 28.0922 71.8046 27.8859 71.9159 27.7014C72.0327 27.5168 72.1856 27.3703 72.3747 27.2617C72.5638 27.1531 72.7724 27.0989 73.0005 27.0989H73.2841C73.401 27.0989 73.5205 27.0907 73.6429 27.0744C73.7708 27.0527 73.8876 27.0147 73.9933 26.9604C74.1046 26.9062 74.188 26.8275 74.2436 26.7243V28.3202C74.2436 28.3905 74.2381 28.4593 74.2269 28.5264V28.7273H75.9901L74.6611 27.3187L75.2118 26.5778L76.2964 27.7312V26.4638L77.1307 26.2847V28.7273H78.0902ZM73.0005 28.7273C73.1173 28.7273 73.2146 28.6893 73.2925 28.6133C73.3759 28.5319 73.4176 28.4342 73.4176 28.3202C73.4176 28.2062 73.3759 28.1112 73.2925 28.0352C73.2146 27.9538 73.1173 27.9131 73.0005 27.9131C72.8837 27.9131 72.7836 27.9538 72.7001 28.0352C72.6223 28.1112 72.5833 28.2062 72.5833 28.3202C72.5833 28.4342 72.6223 28.5319 72.7001 28.6133C72.7836 28.6893 72.8837 28.7273 73.0005 28.7273Z" fill="black"/>
<path fill-rule="evenodd" clip-rule="evenodd" d="M78.0902 28.7273L79.9642 29.5415C80.189 29.5402 80.3948 29.4859 80.5816 29.3786C80.7707 29.2701 80.9209 29.1235 81.0321 28.939C81.1433 28.749 81.199 28.5427 81.199 28.3202C81.199 28.0922 81.1433 27.8859 81.0321 27.7014C80.9209 27.5168 80.7707 27.3703 80.5816 27.2617C80.3925 27.1531 80.1839 27.0989 79.9558 27.0989C79.7278 27.0989 79.5192 27.1531 79.3301 27.2617C79.141 27.3703 78.988 27.5168 78.8712 27.7014C78.7599 27.8859 78.7043 28.0922 78.7043 28.3202C78.7043 28.4625 78.7271 28.5982 78.7726 28.7273H78.0902ZM79.9558 28.7273C80.0726 28.7273 80.17 28.6893 80.2478 28.6133C80.3313 28.5319 80.373 28.4342 80.373 28.3202C80.373 28.2062 80.3313 28.1112 80.2478 28.0352C80.17 27.9538 80.0726 27.9131 79.9558 27.9131C79.839 27.9131 79.7389 27.9538 79.6555 28.0352C79.5776 28.1112 79.5387 28.2062 79.5387 28.3202C79.5387 28.4342 79.5776 28.5319 79.6555 28.6133C79.7389 28.6893 79.839 28.7273 79.9558 28.7273Z" fill="black"/>
<path d="M73.4093 26.936V25.902L74.2436 25.5112V26.4964C74.1936 26.5886 74.1213 26.6673 74.0267 26.7325C73.9377 26.7922 73.8376 26.841 73.7263 26.879C73.6207 26.9116 73.515 26.9306 73.4093 26.936Z" fill="black"/>
<path d="M73.4093 25.7391V23.207L74.2436 23.0278V25.3483L73.4093 25.7391Z" fill="black"/>
<path d="M81.8662 29.5415H88.2872L88.7878 28.7273H86.752C86.4851 28.7273 86.2181 28.6621 85.9511 28.5319C85.7934 28.45 85.6387 28.3503 85.487 28.2329C85.5121 28.2395 85.5405 28.2469 85.5721 28.255C85.6722 28.2767 85.7751 28.2876 85.8808 28.2876C86.0198 28.2876 86.1589 28.2577 86.2979 28.198C86.437 28.1329 86.5538 28.0162 86.6483 27.8479C86.7373 27.6742 86.7818 27.4245 86.7818 27.0989V23.0278L85.9475 23.207V27.2943C85.9475 27.4517 85.9392 27.5955 85.9225 27.7258C85.9002 27.8506 85.8474 27.9538 85.764 28.0352C85.6908 28.1066 85.5791 28.1572 85.4288 28.1868C85.349 28.1223 85.27 28.0527 85.1919 27.9782C84.9527 27.7448 84.7358 27.4788 84.5411 27.1803L84.0739 28.0515C84.1406 28.1546 84.2352 28.2767 84.3575 28.4179C84.4855 28.559 84.6078 28.6621 84.7246 28.7273H82.4502V23.0278L81.6159 23.207V29.3542C81.6159 29.4193 81.6437 29.4655 81.6993 29.4926C81.7549 29.5198 81.8105 29.5361 81.8662 29.5415Z" fill="black"/>
<path d="M85.2806 31.3707C85.1472 31.3707 85.0331 31.3246 84.9386 31.2323C84.844 31.14 84.7967 31.0288 84.7967 30.8985C84.7967 30.7682 84.844 30.6569 84.9386 30.5647C85.0331 30.4724 85.1472 30.4263 85.2806 30.4263C85.4141 30.4263 85.5282 30.4724 85.6227 30.5647C85.7173 30.6569 85.7646 30.7682 85.7646 30.8985C85.7646 31.0288 85.7173 31.14 85.6227 31.2323C85.5282 31.3246 85.4141 31.3707 85.2806 31.3707Z" fill="black"/>
<path d="M90.5947 29.3786C90.7171 29.2918 90.795 29.1887 90.8283 29.0692C90.7783 29.091 90.7087 29.1127 90.6197 29.1344C90.5307 29.1561 90.4417 29.1669 90.3528 29.1669C90.2637 29.1615 90.1887 29.1398 90.1275 29.1018C90.0663 29.0584 90.0357 28.9878 90.0357 28.8901V23.0278L89.2014 23.207V28.8901C89.2014 29.0855 89.2514 29.2375 89.3516 29.3461C89.4517 29.4492 89.5741 29.5171 89.7187 29.5496C89.8689 29.5822 90.0218 29.5822 90.1775 29.5496C90.3388 29.5171 90.4779 29.4601 90.5947 29.3786Z" fill="black"/>
<path d="M73.0341 52.3734C73.1287 52.6168 73.176 52.8938 73.176 53.2043C73.176 53.5736 73.0814 53.9093 72.8922 54.2114C72.703 54.5136 72.4105 54.7528 72.0149 54.929C71.6279 55.0969 71.1205 55.1808 70.4927 55.1808C69.9508 55.1808 69.4606 55.1305 69.022 55.0298C68.5834 54.929 68.2093 54.7612 67.8997 54.5262C67.5986 54.2912 67.3664 53.9848 67.203 53.6072C67.0396 53.2211 66.9579 52.7511 66.9579 52.1971H62.7523C62.7523 53.2547 62.9716 54.1695 63.4103 54.9416C63.8575 55.7054 64.4509 56.3349 65.1906 56.8301C65.9388 57.3252 66.773 57.6945 67.6933 57.9379C68.6135 58.1729 69.5466 58.2904 70.4927 58.2904C71.5333 58.2904 72.475 58.1771 73.3179 57.9505C74.1607 57.7239 74.8831 57.3924 75.4852 56.9559C76.0958 56.5111 76.5602 55.974 76.8784 55.3445C77.2052 54.715 77.3687 53.9932 77.3687 53.1791C77.3687 52.4154 77.231 51.7313 76.9558 51.127C76.6892 50.5227 76.2893 49.9814 75.7561 49.503C75.2229 49.0246 74.5649 48.5966 73.7823 48.2189C73.0083 47.8412 72.1181 47.4971 71.1119 47.1865C70.5357 47.0187 70.0239 46.8424 69.5767 46.6578C69.1295 46.4731 68.7511 46.2801 68.4415 46.0787C68.1405 45.8688 67.9083 45.6464 67.7448 45.4114C67.59 45.168 67.5126 44.8995 67.5126 44.6057C67.5126 44.2364 67.6158 43.8965 67.8223 43.586C68.0373 43.2754 68.3512 43.032 68.764 42.8558C69.1854 42.6711 69.7057 42.5788 70.325 42.5788C70.9614 42.5788 71.4903 42.6879 71.9117 42.9061C72.3417 43.1243 72.66 43.4265 72.8664 43.8126C73.0814 44.1903 73.1889 44.6267 73.1889 45.1219H77.3687C77.3687 43.9972 77.0762 43.011 76.4914 42.1634C75.9066 41.3073 75.0896 40.6442 74.0403 40.1742C72.9997 39.6958 71.7913 39.4566 70.4153 39.4566C69.3832 39.4566 68.4372 39.5783 67.5771 39.8217C66.7171 40.0567 65.9689 40.4008 65.3324 40.854C64.696 41.2989 64.2015 41.836 63.8489 42.4655C63.4963 43.095 63.32 43.8 63.32 44.5805C63.32 45.3862 63.4877 46.0913 63.8231 46.6956C64.1671 47.2998 64.6358 47.8286 65.2292 48.2818C65.8227 48.735 66.4978 49.1337 67.2546 49.4778C68.0201 49.8135 68.8242 50.1157 69.667 50.3843C70.4067 50.6109 71.0044 50.8333 71.4602 51.0515C71.916 51.2613 72.2686 51.4711 72.5181 51.681C72.7675 51.8908 72.9395 52.1216 73.0341 52.3734Z" fill="black"/>
<path fill-rule="evenodd" clip-rule="evenodd" d="M39.4844 39.7084H35.5627L28.6093 58.0386H33.0987L34.2918 54.3877H40.7779L41.9742 58.0386H46.4636L39.4844 39.7084ZM39.7384 51.2152H35.3285L37.5305 44.477L39.7384 51.2152Z" fill="black"/>
<path d="M57.1494 39.7084H61.3549V51.7439C61.3549 53.1707 61.0453 54.3709 60.4261 55.3445C59.8155 56.3181 58.9641 57.0525 57.8718 57.5476C56.7796 58.0428 55.5153 58.2904 54.0791 58.2904C52.6342 58.2904 51.3613 58.0428 50.2605 57.5476C49.1683 57.0525 48.3082 56.3181 47.6804 55.3445C47.0612 54.3709 46.7516 53.1707 46.7516 51.7439V39.7084H50.97V51.7439C50.97 52.5329 51.0904 53.1791 51.3312 53.6827C51.5806 54.1779 51.9376 54.543 52.402 54.778C52.8664 55.0046 53.4254 55.1179 54.0791 55.1179C54.7327 55.1179 55.2874 55.0046 55.7432 54.778C56.2076 54.543 56.556 54.1779 56.7882 53.6827C57.029 53.1791 57.1494 52.5329 57.1494 51.7439V39.7084Z" fill="black"/>
<path d="M87.6674 42.8935V58.0386H83.4747V42.8935H77.8759V39.7084H93.3824V42.8935H87.6674Z" fill="black"/>
<path d="M54.8489 73.0605C54.8489 72.9744 54.8353 72.8971 54.8082 72.8286C54.7833 72.7579 54.7358 72.6939 54.6656 72.6364C54.5954 72.5768 54.497 72.5183 54.3703 72.4608C54.2435 72.4034 54.0794 72.3438 53.878 72.2819C53.6539 72.2113 53.4412 72.1318 53.2398 72.0434C53.0406 71.9551 52.8641 71.8524 52.7102 71.7353C52.5585 71.616 52.4386 71.478 52.3503 71.3212C52.2643 71.1644 52.2213 70.9821 52.2213 70.7745C52.2213 70.5735 52.2666 70.3913 52.3571 70.2279C52.4476 70.0622 52.5744 69.9209 52.7373 69.8038C52.9003 69.6845 53.0927 69.5929 53.3144 69.5288C53.5385 69.4648 53.7841 69.4328 54.0511 69.4328C54.4155 69.4328 54.7335 69.4968 55.0051 69.6249C55.2767 69.753 55.4872 69.9286 55.6365 70.1517C55.7882 70.3748 55.864 70.6299 55.864 70.917H54.8523C54.8523 70.7756 54.8218 70.6519 54.7607 70.5459C54.7018 70.4377 54.6113 70.3527 54.4891 70.2908C54.3691 70.229 54.2175 70.1981 54.0342 70.1981C53.8576 70.1981 53.7105 70.2246 53.5928 70.2776C53.4751 70.3284 53.3869 70.3979 53.328 70.4863C53.2692 70.5724 53.2398 70.6696 53.2398 70.7778C53.2398 70.8596 53.2601 70.9335 53.3009 70.9998C53.3439 71.0661 53.4072 71.1279 53.491 71.1853C53.5747 71.2428 53.6777 71.2969 53.7999 71.3477C53.9221 71.3985 54.0636 71.4482 54.2243 71.4968C54.4936 71.5763 54.7301 71.6657 54.9338 71.7651C55.1398 71.8645 55.3118 71.976 55.4498 72.0997C55.5879 72.2234 55.692 72.3637 55.7621 72.5205C55.8323 72.6773 55.8674 72.8551 55.8674 73.0539C55.8674 73.2637 55.8255 73.4514 55.7418 73.6171C55.658 73.7827 55.537 73.923 55.3785 74.0378C55.2201 74.1527 55.0311 74.2399 54.8116 74.2996C54.5921 74.3592 54.3465 74.389 54.0749 74.389C53.8305 74.389 53.5894 74.3581 53.3518 74.2963C53.1142 74.2322 52.898 74.1361 52.7034 74.008C52.511 73.8799 52.3571 73.7165 52.2417 73.5177C52.1262 73.3189 52.0685 73.0837 52.0685 72.812H53.0904C53.0904 72.9622 53.1142 73.0892 53.1617 73.193C53.2092 73.2968 53.276 73.3808 53.362 73.4448C53.4502 73.5089 53.5544 73.5552 53.6743 73.584C53.7965 73.6127 53.9301 73.627 54.0749 73.627C54.2514 73.627 54.3963 73.6027 54.5094 73.5541C54.6249 73.5056 54.7097 73.4382 54.7641 73.3521C54.8206 73.2659 54.8489 73.1687 54.8489 73.0605Z" fill="black"/>
<path d="M56.9956 69.499L58.0276 71.6989L59.0597 69.499H60.1698L58.5436 72.5669V74.3228H57.5116V72.5669L55.882 69.499H56.9956Z" fill="black"/>
<path fill-rule="evenodd" clip-rule="evenodd" d="M62.2214 69.499H60.378V74.3228H61.3964V72.537H62.2053L63.1414 74.3228H64.2311V74.2764L63.1613 72.297C63.2994 72.2362 63.4241 72.1638 63.5352 72.0798C63.6982 71.9562 63.8238 71.8027 63.912 71.6193C64.0026 71.4338 64.0478 71.2118 64.0478 70.9534C64.0478 70.6376 63.9743 70.3714 63.8271 70.155C63.68 69.9385 63.4696 69.7751 63.1957 69.6647C62.9241 69.5542 62.5993 69.499 62.2214 69.499ZM61.3964 71.7618H62.2282C62.407 71.7618 62.5552 71.7309 62.6729 71.669C62.7906 71.6072 62.8789 71.5211 62.9377 71.4106C62.9988 71.3002 63.0294 71.1721 63.0294 71.0263C63.0294 70.8717 62.9999 70.7381 62.9411 70.6254C62.8822 70.5128 62.7928 70.4267 62.6729 70.367C62.5529 70.3074 62.4024 70.2776 62.2214 70.2776H61.3964V71.7618Z" fill="black"/>
<path d="M65.6717 69.499V74.3228H64.6566V69.499H65.6717Z" fill="black"/>
<path fill-rule="evenodd" clip-rule="evenodd" d="M68.8096 69.499L70.6564 74.3228H69.5701L69.2273 73.3057H67.4507L67.1088 74.3228H66.0258L67.8624 69.499H68.8096ZM67.7125 72.5271H68.9649L68.3379 70.6668L67.7125 72.5271Z" fill="black"/>
<path d="M57.3549 79.0054V79.7508H53.9736V79.1147L55.5726 77.4416C55.7333 77.2671 55.86 77.1136 55.9528 76.9811C56.0456 76.8464 56.1124 76.726 56.1531 76.62C56.1961 76.5118 56.2176 76.4091 56.2176 76.3119C56.2176 76.1661 56.1927 76.0413 56.1429 75.9375C56.0931 75.8315 56.0196 75.7498 55.9223 75.6924C55.8272 75.6349 55.7095 75.6062 55.5692 75.6062C55.4198 75.6062 55.2908 75.6416 55.1822 75.7122C55.0758 75.7829 54.9943 75.8812 54.9377 76.0071C54.8834 76.133 54.8563 76.2755 54.8563 76.4345H53.8751C53.8751 76.1473 53.9453 75.8845 54.0856 75.646C54.226 75.4052 54.424 75.2142 54.6797 75.0728C54.9355 74.9293 55.2388 74.8575 55.5896 74.8575C55.9358 74.8575 56.2278 74.9127 56.4654 75.0231C56.7053 75.1314 56.8864 75.2882 57.0086 75.4936C57.1331 75.6968 57.1953 75.9397 57.1953 76.2224C57.1953 76.3815 57.1693 76.5372 57.1172 76.6896C57.0652 76.8398 56.9905 76.99 56.8932 77.1401C56.7981 77.2881 56.6827 77.4383 56.5469 77.5907C56.4111 77.7431 56.2606 77.901 56.0954 78.0645L55.2365 79.0054H57.3549Z" fill="black"/>
<path fill-rule="evenodd" clip-rule="evenodd" d="M61.0496 77.7497V76.9149C61.0496 76.6255 61.0236 76.3693 60.9715 76.1462C60.9195 75.921 60.8448 75.7277 60.7475 75.5665C60.6501 75.403 60.5325 75.2694 60.3944 75.1656C60.2563 75.0618 60.1013 74.9856 59.9293 74.937C59.7596 74.8862 59.5751 74.8608 59.3759 74.8608C59.127 74.8608 58.9007 74.9006 58.6969 74.9801C58.4933 75.0574 58.3167 75.1788 58.1674 75.3445C58.0202 75.5101 57.9059 75.7233 57.8245 75.9839C57.7453 76.2423 57.7056 76.5526 57.7056 76.9149V77.7497C57.7056 78.0413 57.7317 78.2997 57.7837 78.525C57.8358 78.7503 57.9105 78.9446 58.0078 79.1081C58.1074 79.2693 58.2251 79.4029 58.3609 79.5089C58.4989 79.615 58.6539 79.6934 58.826 79.7442C58.998 79.7928 59.1835 79.8171 59.3827 79.8171C59.6317 79.8171 59.858 79.7773 60.0617 79.6978C60.2654 79.6183 60.4408 79.4957 60.5879 79.33C60.7373 79.1622 60.8516 78.948 60.9308 78.6873C61.01 78.4245 61.0496 78.112 61.0496 77.7497ZM60.0685 76.7857V77.8756C60.0685 78.0943 60.0538 78.2798 60.0244 78.4322C59.9949 78.5846 59.9497 78.7083 59.8885 78.8033C59.8297 78.896 59.7573 78.9645 59.6713 79.0087C59.5875 79.0507 59.4913 79.0716 59.3827 79.0716C59.2944 79.0716 59.213 79.0584 59.1383 79.0319C59.0659 79.0054 59.0014 78.9634 58.9448 78.906C58.8905 78.8464 58.8429 78.7701 58.8022 78.6774C58.7637 78.5824 58.7343 78.4687 58.7139 78.3361C58.6958 78.2036 58.6868 78.0501 58.6868 77.8756V76.7857C58.6868 76.5692 58.7015 76.3859 58.7309 76.2357C58.7626 76.0833 58.8078 75.9618 58.8667 75.8713C58.9255 75.7785 58.9968 75.7111 59.0806 75.6692C59.1666 75.6272 59.265 75.6062 59.3759 75.6062C59.4642 75.6062 59.5445 75.6195 59.617 75.646C59.6894 75.6725 59.7539 75.7144 59.8105 75.7719C59.8671 75.8293 59.9146 75.9044 59.9531 75.9972C59.9915 76.0877 60.0198 76.1982 60.0379 76.3285C60.0583 76.4588 60.0685 76.6112 60.0685 76.7857Z" fill="black"/>
<path fill-rule="evenodd" clip-rule="evenodd" d="M64.7986 76.9149V77.7497C64.7986 78.112 64.759 78.4245 64.6798 78.6873C64.6006 78.948 64.4863 79.1622 64.3369 79.33C64.1898 79.4957 64.0144 79.6183 63.8107 79.6978C63.607 79.7773 63.3807 79.8171 63.1317 79.8171C62.9326 79.8171 62.747 79.7928 62.575 79.7442C62.403 79.6934 62.248 79.615 62.1099 79.5089C61.9741 79.4029 61.8564 79.2693 61.7568 79.1081C61.6595 78.9446 61.5848 78.7503 61.5328 78.525C61.4807 78.2997 61.4547 78.0413 61.4547 77.7497V76.9149C61.4547 76.5526 61.4943 76.2423 61.5735 75.9839C61.655 75.7233 61.7693 75.5101 61.9164 75.3445C62.0658 75.1788 62.2423 75.0574 62.446 74.9801C62.6497 74.9006 62.876 74.8608 63.125 74.8608C63.3241 74.8608 63.5086 74.8862 63.6783 74.937C63.8503 74.9856 64.0054 75.0618 64.1434 75.1656C64.2815 75.2694 64.3992 75.403 64.4965 75.5665C64.5938 75.7277 64.6685 75.921 64.7206 76.1462C64.7726 76.3693 64.7986 76.6255 64.7986 76.9149ZM63.8175 77.8756V76.7857C63.8175 76.6112 63.8073 76.4588 63.787 76.3285C63.7689 76.1982 63.7406 76.0877 63.7021 75.9972C63.6636 75.9044 63.6161 75.8293 63.5595 75.7719C63.5029 75.7144 63.4384 75.6725 63.366 75.646C63.2936 75.6195 63.2132 75.6062 63.125 75.6062C63.0141 75.6062 62.9156 75.6272 62.8296 75.6692C62.7459 75.7111 62.6746 75.7785 62.6157 75.8713C62.5569 75.9618 62.5116 76.0833 62.4799 76.2357C62.4505 76.3859 62.4358 76.5692 62.4358 76.7857V77.8756C62.4358 78.0501 62.4449 78.2036 62.463 78.3361C62.4833 78.4687 62.5128 78.5824 62.5512 78.6774C62.592 78.7701 62.6395 78.8464 62.6938 78.906C62.7504 78.9634 62.8149 79.0054 62.8873 79.0319C62.962 79.0584 63.0435 79.0716 63.1317 79.0716C63.2404 79.0716 63.3366 79.0507 63.4203 79.0087C63.5063 78.9645 63.5787 78.896 63.6376 78.8033C63.6987 78.7083 63.744 78.5846 63.7734 78.4322C63.8028 78.2798 63.8175 78.0943 63.8175 77.8756Z" fill="black"/>
<path d="M68.5782 75.4406V74.9271H65.0849V75.6725H67.5462L65.6349 79.7508H66.6669L68.5782 75.4406Z" fill="black"/>
<path fill-rule="evenodd" clip-rule="evenodd" d="M46.2783 14.6144L61.2539 -6.10352e-05L76.2295 14.6144H97.408V35.2822L112.384 49.8966L97.408 64.511V85.1789H76.2293L61.2539 99.7932L46.2785 85.1789H25.0998V64.5109L10.1243 49.8966L25.0998 35.2822V14.6144H46.2783ZM29.2715 18.6854L29.2714 36.9686L16.0239 49.8966L29.2714 62.8248V81.108H48.0064L61.2539 94.0359L74.5015 81.108H93.2363V62.8249L106.484 49.8966L93.2364 36.9686V18.6854L74.5016 18.6855L61.2539 5.75725L48.0065 18.6854H29.2715Z" fill="black"/>
<path d="M76.8579 97.5439L81.1848 101.346L86.2272 98.5049L83.859 103.696L88.1859 107.498L82.3954 106.904L80.0272 112.095L78.8166 106.537L73.0261 105.943L78.0685 103.102L76.8579 97.5439Z" fill="black"/>
<path d="M105.553 86.8286L100.186 84.6248L103.2 89.4861L99.3943 93.7859L105.063 92.4905L108.078 97.3518L108.567 91.6899L114.236 90.3945L108.87 88.1907L109.359 82.5287L105.553 86.8286Z" fill="black"/>
<path d="M114.263 65.8905L117.309 66.8848L119.219 64.365L119.192 67.4993L122.238 68.4935L119.174 69.4364L119.147 72.5706L117.281 70.0191L114.218 70.9619L116.129 68.4421L114.263 65.8905Z" fill="black"/>
<path d="M41.8153 101.346L46.1422 97.5439L44.9317 103.102L49.9741 105.943L44.1835 106.537L42.973 112.095L40.6048 106.904L34.8142 107.498L39.1412 103.696L36.773 98.5049L41.8153 101.346Z" fill="black"/>
<path d="M22.814 84.6248L17.4474 86.8286L13.6412 82.5287L14.1306 88.1907L8.76396 90.3945L14.433 91.6899L14.9224 97.3518L17.9368 92.4905L23.6058 93.7859L19.7997 89.4861L22.814 84.6248Z" fill="black"/>
<path d="M5.69106 66.8848L8.73701 65.8905L6.87163 68.4421L8.78183 70.9619L5.71875 70.0191L3.85335 72.5706L3.82565 69.4364L0.762573 68.4935L3.80855 67.4993L3.78085 64.365L5.69106 66.8848Z" fill="black"/>
</svg>
