<svg
    xmlns="http://www.w3.org/2000/svg"
    width="819"
    height="302"
    viewBox="0 0 819 302"
    fill="none"
  >
    <path
      d="M227.428 180.998C245.245 180.998 254.154 188.561 254.154 203.686C254.154 215.786 250.792 224.189 244.069 228.895C237.345 233.6 226.755 235.953 212.299 235.953H201.71L199.692 262.674C198.684 278.136 195.322 288.555 189.607 293.933C184.228 299.311 175.319 302 162.88 302C145.063 302 136.154 291.076 136.154 269.229C136.154 265.531 136.322 262.674 136.658 260.658L139.18 235.953C90.4331 235.953 53.453 235.785 28.2393 235.449C20.8433 235.449 14.2878 232.088 8.57266 225.366C2.85755 218.643 0 209.904 0 199.149C0 192.762 1.17664 186.04 3.52992 178.982C18.322 135.959 40.51 87.054 70.0941 32.2671C76.4816 20.5031 82.869 12.2682 89.2565 7.56263C95.9801 2.52088 106.234 0 120.017 0C127.413 0 132.96 1.68059 136.658 5.04176C140.692 8.40292 142.71 12.7724 142.71 18.1503C142.71 23.8642 141.029 29.5782 137.667 35.2922C104.721 95.4569 81.5243 144.026 68.077 180.998H145.735C149.769 149.74 155.316 119.993 162.376 91.7596C165.066 81.34 169.436 73.4413 175.487 68.0634C181.539 62.3495 189.943 59.4925 200.701 59.4925C217.846 59.4925 226.419 66.887 226.419 81.6761C226.419 86.0456 226.083 89.4068 225.41 91.7596C219.359 120.329 213.98 150.076 209.274 180.998H227.428Z"
      fill="#1976D2"
    />
    <path
      d="M395.93 296.958C362.984 296.958 337.434 286.203 319.28 264.691C301.463 243.18 292.554 212.425 292.554 172.427C292.554 138.48 297.765 108.565 308.186 82.6845C318.944 56.4675 333.736 36.1325 352.562 21.6795C371.725 7.2265 393.913 0 419.126 0C452.072 0 477.454 10.7557 495.272 32.2671C513.426 53.7785 522.503 84.5331 522.503 124.531C522.503 158.479 517.124 188.561 506.366 214.778C495.944 240.659 481.152 260.826 461.99 275.279C443.164 289.732 421.144 296.958 395.93 296.958ZM400.973 240.491C419.126 240.491 433.414 230.407 443.836 210.24C454.258 190.073 459.468 162.68 459.468 128.06C459.468 104.868 455.602 87.222 447.87 75.1219C440.138 62.6856 428.876 56.4674 414.084 56.4674C395.93 56.4674 381.642 66.719 371.22 87.222C360.799 107.389 355.588 134.782 355.588 169.402C355.588 192.594 359.286 210.24 366.682 222.341C374.414 234.441 385.844 240.491 400.973 240.491Z"
      fill="#1976D2"
    />
    <path
      d="M792.273 180.998C810.091 180.998 819 188.561 819 203.686C819 215.786 815.638 224.189 808.914 228.895C802.191 233.6 791.601 235.953 777.145 235.953H766.555L764.538 262.674C763.53 278.136 760.168 288.555 754.453 293.933C749.074 299.311 740.165 302 727.726 302C709.909 302 701 291.076 701 269.229C701 265.531 701.168 262.674 701.504 260.658L704.026 235.953C655.279 235.953 618.299 235.785 593.085 235.449C585.689 235.449 579.134 232.088 573.419 225.366C567.703 218.643 564.846 209.904 564.846 199.149C564.846 192.762 566.023 186.04 568.376 178.982C583.168 135.959 605.356 87.054 634.94 32.2671C641.327 20.5031 647.715 12.2682 654.102 7.56263C660.826 2.52088 671.08 0 684.863 0C692.259 0 697.806 1.68059 701.504 5.04176C705.538 8.40292 707.555 12.7724 707.555 18.1503C707.555 23.8642 705.875 29.5782 702.513 35.2922C669.567 95.4569 646.37 144.026 632.923 180.998H710.581C714.615 149.74 720.162 119.993 727.222 91.7596C729.912 81.34 734.282 73.4413 740.333 68.0634C746.385 62.3495 754.789 59.4925 765.547 59.4925C782.692 59.4925 791.265 66.887 791.265 81.6761C791.265 86.0456 790.929 89.4068 790.256 91.7596C784.205 120.329 778.826 150.076 774.12 180.998H792.273Z"
      fill="#1976D2"
    />
  </svg>