<svg width="619" height="552" viewBox="0 0 619 552" fill="none" xmlns="http://www.w3.org/2000/svg">
<g clip-path="url(#clip0_545_25422)">
<path d="M392.759 541.792L392.752 541.735C392.049 526.109 389.186 510.656 384.243 495.818L384.238 495.793C383.95 494.269 384.034 492.698 384.482 491.214C385.863 486.959 390.144 484.354 394.552 485.087C399.105 485.943 403.815 485.138 407.826 482.818C410.374 481.338 413.466 481.133 416.186 482.264C418.751 483.31 420.67 485.511 421.36 488.197C421.414 488.408 421.461 488.621 421.501 488.838C421.646 504.538 424.526 520.091 430.013 534.799L430.016 534.818C430.59 537.855 429.674 540.984 427.554 543.23C425.679 545.135 423.053 546.101 420.393 545.864C415.618 545.539 410.707 546.508 405.379 548.83C403.519 549.659 401.426 549.807 399.468 549.246C396.004 548.23 393.409 545.346 392.759 541.792Z" fill="#1976D2"/>
<path d="M33.2852 30.2424V380.506C33.2925 389.8 40.8211 397.333 50.1104 397.34H568.89C578.179 397.333 585.708 389.8 585.715 380.506V30.2424C585.693 20.9572 578.17 13.4385 568.89 13.4268H50.1105C40.8303 13.4386 33.3073 20.9573 33.2852 30.2424Z" fill="#E6E6E6"/>
<path d="M582.15 13.0049H36.8495C31.5378 13.0165 27.2378 17.3305 27.2373 22.6485V388.025C27.2464 393.336 31.5446 397.639 36.8495 397.648H582.15C587.455 397.639 591.753 393.336 591.763 388.025V22.6485C591.762 17.3305 587.462 13.0165 582.15 13.0049ZM444.596 272.588C442.966 275.812 439.661 277.841 436.052 277.833L435.995 277.828C430.767 277.099 425.52 276.619 420.254 276.386C421.072 276.972 421.791 277.685 422.386 278.497C423.914 280.689 424.384 283.451 423.666 286.026C422.475 290.667 422.531 295.678 423.84 301.346C424.315 303.329 424.077 305.416 423.169 307.241C421.54 310.465 418.234 312.494 414.625 312.486L414.568 312.482C402.084 310.741 389.444 310.404 376.886 311.477C376.836 311.794 376.774 312.111 376.692 312.428C375.501 317.07 375.557 322.081 376.866 327.749C377.341 329.732 377.103 331.819 376.196 333.644C374.566 336.868 371.26 338.897 367.651 338.888L367.594 338.884C354.773 337.097 341.789 336.791 328.898 337.972C328.8 341.195 329.135 344.416 329.892 347.551C330.367 349.534 330.129 351.62 329.222 353.446C327.592 356.67 324.286 358.699 320.677 358.69L320.62 358.686C305.146 356.527 289.448 356.527 273.975 358.686H273.95C272.4 358.692 270.873 358.323 269.497 357.61C265.57 355.475 263.793 350.786 265.317 346.581C265.784 345.257 266.132 343.893 266.355 342.507C252.174 340.87 237.843 341.039 223.704 343.01H223.679C222.13 343.015 220.602 342.646 219.226 341.934C215.3 339.799 213.523 335.11 215.046 330.904C216.718 326.578 216.787 321.795 215.239 317.423C214.51 315.373 214.51 313.133 215.239 311.083C204.58 310.539 193.894 311.008 183.323 312.482H183.298C181.749 312.488 180.221 312.119 178.845 311.406C174.919 309.271 173.141 304.582 174.665 300.376C176.337 296.05 176.406 291.268 174.858 286.895C173.87 284.117 174.233 281.037 175.839 278.565C177.335 276.231 179.846 274.743 182.61 274.554C182.827 274.54 183.045 274.532 183.266 274.532C188.682 275.48 194.15 276.099 199.64 276.384C196.138 274.079 194.67 269.671 196.092 265.723C197.764 261.397 197.832 256.614 196.285 252.242C195.297 249.464 195.659 246.383 197.266 243.912C197.336 243.805 197.417 243.711 197.49 243.608C193.583 243.878 189.684 244.284 185.795 244.826H185.77C184.221 244.831 182.694 244.462 181.318 243.75C177.391 241.615 175.614 236.926 177.137 232.72C178.809 228.394 178.878 223.611 177.331 219.239C176.342 216.461 176.705 213.38 178.312 210.909C179.808 208.575 182.319 207.087 185.082 206.898C185.3 206.884 185.518 206.876 185.738 206.876C192.25 208.018 198.837 208.681 205.446 208.862C203.76 206.43 203.346 203.333 204.333 200.542C206.005 196.216 206.073 191.433 204.526 187.061C203.538 184.283 203.901 181.203 205.507 178.731C207.003 176.397 209.514 174.909 212.278 174.72C212.495 174.706 212.713 174.698 212.934 174.698C218.445 175.663 224.01 176.287 229.597 176.566C228.397 174.29 228.201 171.616 229.056 169.189C230.728 164.863 230.797 160.081 229.249 155.708C228.261 152.93 228.624 149.85 230.23 147.378C231.726 145.044 234.237 143.557 237.001 143.368C237.218 143.353 237.436 143.345 237.657 143.345C244.141 144.482 250.7 145.145 257.28 145.329C256.384 143.21 256.311 140.832 257.076 138.662C258.748 134.335 258.816 129.553 257.269 125.18C256.28 122.402 256.643 119.322 258.25 116.85C259.746 114.516 262.257 113.029 265.02 112.84C265.238 112.825 265.456 112.818 265.676 112.818C281.121 115.539 296.921 115.541 312.365 112.824H312.385C313.577 113.069 314.806 113.069 315.998 112.824H316.018C331.462 115.541 347.262 115.539 362.707 112.818C362.927 112.818 363.145 112.825 363.362 112.84C366.126 113.029 368.637 114.516 370.133 116.85C371.74 119.322 372.103 122.402 371.114 125.18C369.567 129.553 369.635 134.335 371.307 138.662C372.072 140.832 371.999 143.21 371.103 145.329C377.683 145.145 384.242 144.482 390.726 143.345C390.947 143.345 391.165 143.353 391.382 143.368C394.146 143.557 396.657 145.044 398.153 147.378C399.759 149.85 400.122 152.93 399.134 155.708C397.586 160.081 397.655 164.863 399.327 169.189C400.182 171.616 399.986 174.29 398.786 176.566C404.373 176.287 409.938 175.663 415.449 174.698C415.67 174.698 415.888 174.706 416.105 174.72C418.869 174.909 421.38 176.397 422.876 178.731C424.482 181.203 424.845 184.283 423.857 187.061C422.31 191.433 422.378 196.216 424.05 200.542C425.04 203.34 424.621 206.445 422.926 208.88C423.661 209.436 424.312 210.097 424.858 210.841C426.386 213.033 426.856 215.795 426.138 218.37C424.947 223.011 425.004 228.022 426.312 233.69C426.787 235.673 426.55 237.76 425.642 239.585C425.31 240.235 424.905 240.845 424.437 241.404C428.294 241.065 432.142 240.559 435.981 239.885H436C439.088 239.874 441.993 241.346 443.812 243.844C445.341 246.036 445.81 248.798 445.093 251.373C443.902 256.014 443.958 261.025 445.267 266.693C445.741 268.676 445.504 270.763 444.596 272.588Z" fill="white"/>
<path d="M315.51 348.957L315.453 348.953C299.979 346.795 284.281 346.795 268.807 348.953H268.782C267.233 348.959 265.705 348.59 264.329 347.878C260.402 345.743 258.625 341.054 260.149 336.848C261.821 332.522 261.89 327.739 260.342 323.367C259.354 320.589 259.717 317.508 261.323 315.037C262.819 312.703 265.33 311.215 268.094 311.026C268.311 311.012 268.529 311.004 268.75 311.004C284.194 313.725 299.994 313.728 315.439 311.01H315.458C318.546 310.999 321.451 312.471 323.27 314.969C324.799 317.161 325.268 319.923 324.551 322.498C323.36 327.139 323.416 332.15 324.725 337.818C325.199 339.801 324.962 341.888 324.054 343.713C322.424 346.937 319.119 348.966 315.51 348.957Z" fill="#1976D2"/>
<path d="M363.097 268.061L350.648 257.747C341.313 262.646 327.108 282.204 327.108 282.204L294.339 305.8C290.403 305.987 287.365 309.334 287.552 313.274C287.74 317.214 291.082 320.256 295.017 320.068C297.571 319.946 299.865 318.465 301.029 316.186L345.553 292.63L363.097 268.061Z" fill="#FFB8B8"/>
<path d="M384.099 228.807C391.284 234.899 392.176 245.669 386.091 252.863C385.409 253.669 384.654 254.41 383.835 255.076L375.919 261.519C375.919 261.519 356.173 289.979 345.894 293.28L319.507 307.082L307.609 295.138L331.524 275.626C331.524 275.626 342.523 265.21 343.625 257.585C344.299 252.916 352.193 240.196 360.105 230.761C366.178 223.589 376.908 222.704 384.072 228.784L384.099 228.807Z" fill="#FFD832"/>
<path d="M358.516 537.678L347.269 537.677L341.919 494.245L358.518 494.246L358.516 537.678Z" fill="#FFB6B6"/>
<path d="M358.911 549.425L324.326 549.423V548.985C324.327 541.542 330.353 535.509 337.788 535.508L344.106 530.71L355.893 535.509L358.912 535.509L358.911 549.425Z" fill="#2F2E41"/>
<path d="M444.209 478.413L438.883 488.33L398.141 472.482L406.002 457.845L444.209 478.413Z" fill="#FFB6B6"/>
<path d="M454.731 483.626L438.352 514.123L437.967 513.916C431.419 510.391 428.965 502.219 432.485 495.663L432.486 495.663L431.256 487.82L441.059 479.698L442.489 477.036L454.731 483.626Z" fill="#2F2E41"/>
<path d="M337.252 338.784L327.326 418.288L332.289 444.943L421.626 484.127L426.589 467.978C403.753 453.988 379.342 432.816 363.961 431.259C363.961 431.259 362.685 417.15 373.705 408.443C375.928 406.686 375.441 404.31 376.341 402.155C376.959 400.674 379.418 399.131 380.048 397.611C380.865 395.641 379.854 393.684 380.675 391.682C381.137 390.557 382.886 390.486 383.345 389.36C384.127 387.439 383.615 384.464 384.377 382.566C386.006 378.51 387.572 374.543 389.002 370.825C393.453 359.251 396.585 350.081 396.19 348.101C394.949 341.89 337.252 338.784 337.252 338.784Z" fill="#2F2E41"/>
<path d="M335.543 418.059L330.35 451.634L343.456 520.153H360.827C367.068 497.13 367.39 466.871 361.448 441.27L335.543 418.059Z" fill="#2F2E41"/>
<path d="M346.703 241.646L354.71 227.676L363.308 220.771L379.439 218.286L383.92 221.736C400.048 246.414 406.062 276.363 400.714 305.364L399.455 312.191L398.656 316.524L399.002 321.704L396.31 329.244L396.68 334.766L396.878 337.715L397.077 340.674L397.354 344.806C397.85 347.163 395.352 346.853 395.705 348.931C396.326 352.581 399.108 357.989 394.881 358.007L351.204 348.931C340.108 348.977 329.777 335.73 340.49 325.004L346.703 241.646Z" fill="#FFD832"/>
<path d="M367.147 214.395C378.861 214.395 388.357 204.888 388.357 193.16C388.357 181.433 378.861 171.926 367.147 171.926C355.433 171.926 345.938 181.433 345.938 193.16C345.938 204.888 355.433 214.395 367.147 214.395Z" fill="#FFB8B8"/>
<path d="M367.506 213.791C370.61 213.839 373.711 213.622 376.778 213.142C379.817 212.523 386.617 207.535 388.513 204.533C389.921 202.302 390.821 198.819 391.329 196.29C392.711 189.522 391.163 182.485 387.068 176.925C386.29 175.776 385.215 174.858 383.959 174.269C383.847 174.225 383.733 174.187 383.617 174.154C381.786 173.671 380.141 172.652 378.893 171.227C378.65 170.938 378.388 170.668 378.107 170.417C376.696 169.226 375.024 168.385 373.226 167.964C370.325 167.186 366.126 167.958 360.746 170.26C358.044 171.416 355.088 170.998 352.814 170.504C352.555 170.454 352.288 170.545 352.114 170.744C351.146 171.653 349.871 172.162 348.544 172.169C347.731 172.204 346.878 173.331 345.848 174.8C345.614 175.134 345.341 175.523 345.144 175.76L345.118 175.305L344.658 175.812C342.293 178.422 342.489 182.458 345.096 184.826C345.797 185.462 346.63 185.935 347.536 186.208C348.353 186.426 349.191 186.56 350.035 186.607C350.547 186.653 351.076 186.701 351.583 186.789C354.895 187.468 357.606 189.839 358.724 193.032C359.193 194.34 360.631 195.02 361.938 194.551C362.143 194.478 362.338 194.378 362.517 194.254C363.589 193.418 365.003 193.16 366.3 193.564C366.853 193.871 367.283 194.36 367.519 194.947C367.805 195.602 368.279 196.156 368.882 196.539C370.941 197.603 371.083 202.313 370.344 206.239C369.631 210.024 368.221 212.762 366.916 212.897C365.911 213.001 365.796 213.073 365.723 213.25L365.658 213.41L365.771 213.559C366.326 213.76 366.918 213.839 367.506 213.791Z" fill="#2F2E41"/>
<path d="M324.575 201.269L324.518 201.265C309.044 199.106 293.346 199.106 277.872 201.265H277.847C276.298 201.271 274.771 200.902 273.395 200.189C269.468 198.054 267.691 193.365 269.214 189.159C270.886 184.833 270.955 180.051 269.408 175.678C268.419 172.9 268.782 169.82 270.389 167.348C271.885 165.014 274.396 163.527 277.159 163.338C277.377 163.323 277.595 163.315 277.815 163.315C293.259 166.037 309.059 166.039 324.504 163.321H324.524C327.611 163.311 330.516 164.783 332.336 167.28C333.864 169.472 334.334 172.234 333.616 174.809C332.425 179.45 332.481 184.462 333.79 190.13C334.265 192.112 334.027 194.199 333.12 196.025C331.49 199.249 328.184 201.277 324.575 201.269Z" fill="#1976D2"/>
<path d="M344.409 251.281L353.185 237.698C347.235 228.988 326.174 217.15 326.174 217.15L298.938 187.324C298.292 183.433 294.617 180.803 290.731 181.449C286.844 182.096 284.217 185.775 284.863 189.666C285.283 192.191 287.02 194.299 289.416 195.19L317.986 236.709L344.409 251.281Z" fill="#FFB8B8"/>
<path d="M385.802 267.577C380.599 275.433 370.019 277.579 362.172 272.369C361.293 271.785 360.47 271.121 359.713 270.385L352.397 263.266C352.397 263.266 321.728 247.233 317.252 237.399L297.156 208.863L310.63 196.693L334.05 218.008C334.05 218.008 344.833 230.492 352.525 230.696C357.236 230.821 370.776 237.183 381.06 243.948C388.884 249.148 391.016 259.714 385.822 267.547L385.802 267.577Z" fill="#FFD832"/>
<path d="M181.499 549.301L181.442 549.297C165.968 547.139 150.27 547.139 134.796 549.297H134.771C133.222 549.303 131.694 548.934 130.318 548.221C126.392 546.086 124.615 541.397 126.138 537.192C127.81 532.866 127.879 528.083 126.331 523.71C125.343 520.933 125.706 517.852 127.313 515.38C128.808 513.046 131.32 511.559 134.083 511.37C134.3 511.355 134.519 511.348 134.739 511.348C150.183 514.069 165.983 514.071 181.428 511.354H181.447C184.535 511.343 187.44 512.815 189.26 515.312C190.788 517.505 191.258 520.266 190.54 522.842C189.349 527.483 189.405 532.494 190.714 538.162C191.189 540.145 190.951 542.232 190.043 544.057C188.414 547.281 185.108 549.31 181.499 549.301Z" fill="#1976D2"/>
<path d="M194.684 514.648L194.627 514.644C179.154 512.485 163.456 512.485 147.982 514.644H147.957C146.408 514.65 144.88 514.281 143.504 513.568C139.577 511.433 137.8 506.744 139.324 502.538C140.996 498.212 141.064 493.43 139.517 489.057C138.529 486.279 138.891 483.199 140.498 480.727C141.994 478.393 144.505 476.905 147.269 476.716C147.486 476.702 147.704 476.694 147.925 476.694C163.369 479.416 179.169 479.418 194.614 476.7H194.633C197.72 476.69 200.626 478.162 202.445 480.659C203.974 482.851 204.443 485.613 203.725 488.188C202.534 492.829 202.591 497.841 203.899 503.508C204.374 505.491 204.137 507.578 203.229 509.404C201.599 512.628 198.294 514.656 194.684 514.648Z" fill="#1976D2"/>
<path d="M79.2994 524.094L79.3347 524.049C89.7908 512.427 98.5867 499.409 105.471 485.368L105.485 485.347C106.348 484.059 107.51 482.999 108.87 482.258C112.837 480.198 117.712 481.351 120.337 484.971C122.979 488.782 126.898 491.519 131.382 492.685C134.234 493.422 136.579 495.449 137.724 498.166C138.817 500.715 138.64 503.631 137.248 506.028C137.138 506.217 137.022 506.402 136.899 506.585C125.994 517.867 117.139 530.968 110.733 545.298L110.722 545.314C109.001 547.88 106.155 549.465 103.07 549.574C100.4 549.613 97.852 548.455 96.1236 546.417C92.9514 542.829 88.774 540.068 83.3517 537.977C81.4452 537.26 79.8517 535.894 78.8503 534.118C77.0963 530.96 77.2701 527.082 79.2994 524.094Z" fill="#1976D2"/>
<path d="M618.024 550.56L0.976132 550.813C0.434209 550.81 -0.0028212 550.368 1.37144e-05 549.826C0.00281567 549.287 0.438206 548.851 0.976132 548.848L618.024 548.595C618.566 548.598 619.003 549.04 619 549.582C618.997 550.121 618.562 550.557 618.024 550.56Z" fill="#CACACA"/>
</g>
<defs>
<clipPath id="clip0_545_25422">
<rect width="619" height="552" fill="white"/>
</clipPath>
</defs>
</svg>
