<svg width="122" height="123" viewBox="0 0 122 123" fill="none" xmlns="http://www.w3.org/2000/svg">
<mask id="mask0_49_7538" style="mask-type:alpha" maskUnits="userSpaceOnUse" x="0" y="0" width="122" height="123">
<rect y="0.5" width="122" height="122" fill="#D9D9D9"/>
</mask>
<g mask="url(#mask0_49_7538)">
<path d="M61.0005 112.46C59.6449 112.46 58.3529 112.206 57.1244 111.698C55.8959 111.19 54.7734 110.469 53.7567 109.538L12.963 68.7438C12.031 67.7271 11.3109 66.6045 10.8025 65.3761C10.2942 64.1476 10.04 62.8556 10.04 61.5C10.04 60.1445 10.2942 58.8313 10.8025 57.5604C11.3109 56.2896 12.031 55.1882 12.963 54.2563L53.7567 13.4625C54.7734 12.4459 55.8959 11.7045 57.1244 11.2386C58.3529 10.7726 59.6449 10.5396 61.0005 10.5396C62.356 10.5396 63.6692 10.7726 64.94 11.2386C66.2109 11.7045 67.3123 12.4459 68.2442 13.4625L109.038 54.2563C110.055 55.1882 110.796 56.2896 111.262 57.5604C111.728 58.8313 111.961 60.1445 111.961 61.5C111.961 62.8556 111.728 64.1476 111.262 65.3761C110.796 66.6045 110.055 67.7271 109.038 68.7438L68.2442 109.538C67.3123 110.469 66.2109 111.19 64.94 111.698C63.6692 112.206 62.356 112.46 61.0005 112.46ZM61.0005 102.294L101.794 61.5L61.0005 20.7063L20.2067 61.5L61.0005 102.294ZM55.9171 66.5834H66.0838V36.0834H55.9171V66.5834ZM61.0005 81.8334C62.4407 81.8334 63.648 81.3462 64.6223 80.3719C65.5966 79.3976 66.0838 78.1903 66.0838 76.75C66.0838 75.3098 65.5966 74.1025 64.6223 73.1282C63.648 72.1539 62.4407 71.6667 61.0005 71.6667C59.5602 71.6667 58.3529 72.1539 57.3786 73.1282C56.4043 74.1025 55.9171 75.3098 55.9171 76.75C55.9171 78.1903 56.4043 79.3976 57.3786 80.3719C58.3529 81.3462 59.5602 81.8334 61.0005 81.8334Z" fill="#FFCF00"/>
</g>
</svg>
