<svg width="56" height="51" viewBox="0 0 56 51" fill="none" xmlns="http://www.w3.org/2000/svg">
<path fill-rule="evenodd" clip-rule="evenodd" d="M14.9192 13.4166C14.8171 13.4154 14.7235 13.3908 14.6384 13.3427C14.5512 13.2934 14.4807 13.2268 14.4269 13.143C14.3756 13.0567 14.3499 12.963 14.3499 12.862C14.3499 12.7584 14.3756 12.6647 14.4269 12.5809C14.4807 12.4971 14.5512 12.4306 14.6384 12.3812C14.7256 12.3319 14.8217 12.3073 14.9269 12.3073H15.0576C15.1115 12.3073 15.1666 12.3036 15.223 12.2962C15.282 12.2863 15.3359 12.2691 15.3846 12.2444C15.4359 12.2198 15.4743 12.184 15.5 12.1372V12.862C15.5 12.8939 15.4974 12.9252 15.4923 12.9556V13.0469H16.2924V12.0189L16.6771 11.9375V12.3073H18.6386C18.7976 12.3073 18.9246 12.3282 19.0194 12.3702C19.1169 12.4121 19.1899 12.4688 19.2387 12.5403C19.2899 12.6117 19.3246 12.6919 19.3425 12.7806C19.3605 12.8694 19.3694 12.9618 19.3694 13.0579V13.3316C19.3694 13.3612 19.3566 13.3821 19.331 13.3944C19.3053 13.4068 19.2797 13.4142 19.254 13.4166H14.9269L14.9192 13.4166ZM16.6771 13.0469H18.9848C18.9874 12.9433 18.9656 12.8558 18.9194 12.7843C18.8758 12.7128 18.7822 12.6771 18.6386 12.6771H16.6771V13.0469ZM14.9269 13.0469C14.9807 13.0469 15.0256 13.0296 15.0615 12.9951C15.1 12.9581 15.1192 12.9137 15.1192 12.862C15.1192 12.8102 15.1 12.7671 15.0615 12.7325C15.0256 12.6956 14.9807 12.6771 14.9269 12.6771C14.873 12.6771 14.8269 12.6956 14.7884 12.7325C14.7525 12.7671 14.7346 12.8102 14.7346 12.862C14.7346 12.9137 14.7525 12.9581 14.7884 12.9951C14.8269 13.0296 14.873 13.0469 14.9269 13.0469Z" fill="white"/>
<path d="M15.1153 12.2333V11.7637L15.5 11.5862V12.0337C15.4769 12.0756 15.4436 12.1113 15.4 12.1409C15.3589 12.168 15.3128 12.1902 15.2615 12.2074C15.2128 12.2222 15.1641 12.2309 15.1153 12.2333Z" fill="white"/>
<path d="M15.1153 11.6898V10.5397L15.5 10.4584V11.5123L15.1153 11.6898Z" fill="white"/>
<path d="M14.6534 11.1536C14.5919 11.1536 14.5393 11.1326 14.4957 11.0907C14.4521 11.0488 14.4303 10.9983 14.4303 10.9391C14.4303 10.8799 14.4521 10.8294 14.4957 10.7875C14.5393 10.7456 14.5919 10.7246 14.6534 10.7246C14.7149 10.7246 14.7675 10.7456 14.8111 10.7875C14.8547 10.8294 14.8765 10.8799 14.8765 10.9391C14.8765 10.9983 14.8547 11.0488 14.8111 11.0907C14.7675 11.1326 14.7149 11.1536 14.6534 11.1536Z" fill="white"/>
<path d="M14.6534 11.7822C14.5919 11.7822 14.5393 11.7612 14.4957 11.7193C14.4521 11.6774 14.4303 11.6269 14.4303 11.5677C14.4303 11.5086 14.4521 11.458 14.4957 11.4161C14.5393 11.3742 14.5919 11.3533 14.6534 11.3533C14.7149 11.3533 14.7675 11.3742 14.8111 11.4161C14.8547 11.458 14.8765 11.5086 14.8765 11.5677C14.8765 11.6269 14.8547 11.6774 14.8111 11.7193C14.7675 11.7612 14.7149 11.7822 14.6534 11.7822Z" fill="white"/>
<path d="M19.6788 13.4166C19.6531 13.4142 19.6275 13.4068 19.6019 13.3944C19.5762 13.3821 19.5634 13.3612 19.5634 13.3316V10.5397L19.948 10.4584V13.0469H20.9965C20.9427 13.0173 20.8863 12.9704 20.8273 12.9063C20.7709 12.8422 20.7273 12.7868 20.6965 12.7399L20.9119 12.3443C21.0017 12.4799 21.1017 12.6006 21.2119 12.7067C21.248 12.7405 21.2844 12.7721 21.3212 12.8014C21.3904 12.7879 21.4419 12.765 21.4757 12.7325C21.5141 12.6956 21.5385 12.6487 21.5487 12.592C21.5564 12.5329 21.5603 12.4675 21.5603 12.396V10.5397L21.9449 10.4584V12.3073C21.9449 12.4552 21.9244 12.5686 21.8834 12.6475C21.8398 12.7239 21.7859 12.7769 21.7218 12.8065C21.6577 12.8336 21.5936 12.8472 21.5295 12.8472C21.4808 12.8472 21.4334 12.8422 21.3872 12.8324C21.3727 12.8287 21.3596 12.8253 21.348 12.8223C21.4179 12.8757 21.4892 12.9209 21.5619 12.9581C21.685 13.0173 21.8081 13.0469 21.9312 13.0469H22.8697L22.6389 13.4166H19.6788Z" fill="white"/>
<path d="M20.8285 11.7193C20.8721 11.7612 20.9246 11.7822 20.9862 11.7822C21.0477 11.7822 21.1003 11.7612 21.1439 11.7193C21.1875 11.6774 21.2093 11.6269 21.2093 11.5677C21.2093 11.5086 21.1875 11.458 21.1439 11.4161C21.1003 11.3742 21.0477 11.3533 20.9862 11.3533C20.9246 11.3533 20.8721 11.3742 20.8285 11.4161C20.7849 11.458 20.7631 11.5086 20.7631 11.5677C20.7631 11.6269 20.7849 11.6774 20.8285 11.7193Z" fill="white"/>
<path d="M23.8103 13.2022C23.795 13.2564 23.7591 13.3032 23.7026 13.3427C23.6488 13.3797 23.5847 13.4055 23.5103 13.4203C23.4385 13.4351 23.368 13.4351 23.2988 13.4203C23.2321 13.4055 23.1757 13.3747 23.1296 13.3279C23.0834 13.2786 23.0603 13.2096 23.0603 13.1208V10.5397L23.4449 10.4584V13.1208C23.4449 13.1652 23.459 13.1972 23.4873 13.217C23.5155 13.2342 23.5501 13.2441 23.5911 13.2465C23.6321 13.2465 23.6732 13.2416 23.7142 13.2317C23.7552 13.2219 23.7873 13.212 23.8103 13.2022Z" fill="white"/>
<path d="M24.5508 11.0907C24.5944 11.1326 24.6469 11.1536 24.7085 11.1536C24.77 11.1536 24.8226 11.1326 24.8662 11.0907C24.9098 11.0488 24.9315 10.9983 24.9315 10.9391C24.9315 10.8799 24.9098 10.8294 24.8662 10.7875C24.8226 10.7456 24.77 10.7246 24.7085 10.7246C24.6469 10.7246 24.5944 10.7456 24.5508 10.7875C24.5072 10.8294 24.4854 10.8799 24.4854 10.9391C24.4854 10.9983 24.5072 11.0488 24.5508 11.0907Z" fill="white"/>
<path d="M24.5508 11.7193C24.5944 11.7612 24.6469 11.7822 24.7085 11.7822C24.77 11.7822 24.8226 11.7612 24.8662 11.7193C24.9098 11.6774 24.9315 11.6269 24.9315 11.5677C24.9315 11.5086 24.9098 11.458 24.8662 11.4161C24.8226 11.3742 24.77 11.3533 24.7085 11.3533C24.6469 11.3533 24.5944 11.3742 24.5508 11.4161C24.5072 11.458 24.4854 11.5086 24.4854 11.5677C24.4854 11.6269 24.5072 11.6774 24.5508 11.7193Z" fill="white"/>
<path fill-rule="evenodd" clip-rule="evenodd" d="M24.9743 13.4166C24.8721 13.4154 24.7785 13.3908 24.6935 13.3427C24.6063 13.2934 24.5358 13.2268 24.4819 13.143C24.4306 13.0567 24.405 12.963 24.405 12.862C24.405 12.7584 24.4306 12.6647 24.4819 12.5809C24.5358 12.4971 24.6063 12.4306 24.6935 12.3812C24.7807 12.3319 24.8768 12.3073 24.9819 12.3073H25.1127C25.1666 12.3073 25.2217 12.3036 25.2781 12.2962C25.3371 12.2863 25.3909 12.2691 25.4396 12.2444C25.4909 12.2198 25.5294 12.184 25.555 12.1372V12.862C25.555 12.8939 25.5525 12.9252 25.5473 12.9556V13.0469H26.2898V12.3886L26.6744 12.3073V13.0469H27.4429V12.3886L27.8276 12.3073V13.3316C27.8276 13.3612 27.8147 13.3821 27.7891 13.3944C27.7635 13.4068 27.7378 13.4142 27.7122 13.4166H24.9819L24.9743 13.4166ZM24.9819 13.0469C25.0358 13.0469 25.0807 13.0296 25.1166 12.9951C25.155 12.9581 25.1743 12.9137 25.1743 12.862C25.1743 12.8102 25.155 12.7671 25.1166 12.7325C25.0807 12.6956 25.0358 12.6771 24.9819 12.6771C24.9281 12.6771 24.8819 12.6956 24.8435 12.7325C24.8076 12.7671 24.7896 12.8102 24.7896 12.862C24.7896 12.9137 24.8076 12.9581 24.8435 12.9951C24.8819 13.0296 24.9281 13.0469 24.9819 13.0469Z" fill="white"/>
<path d="M25.1704 12.2333V11.7637L25.555 11.5862V12.0337C25.532 12.0756 25.4986 12.1113 25.455 12.1409C25.414 12.168 25.3679 12.1902 25.3166 12.2074C25.2678 12.2222 25.2191 12.2309 25.1704 12.2333Z" fill="white"/>
<path d="M25.1704 11.6898V10.5397L25.555 10.4584V11.5123L25.1704 11.6898Z" fill="white"/>
<path d="M26.3993 14.1845C26.4429 14.2265 26.4955 14.2474 26.557 14.2474C26.6186 14.2474 26.6711 14.2265 26.7147 14.1845C26.7583 14.1426 26.7801 14.0921 26.7801 14.0329C26.7801 13.9738 26.7583 13.9232 26.7147 13.8813C26.6711 13.8394 26.6186 13.8185 26.557 13.8185C26.4955 13.8185 26.4429 13.8394 26.3993 13.8813C26.3557 13.9232 26.334 13.9738 26.334 14.0329C26.334 14.0921 26.3557 14.1426 26.3993 14.1845Z" fill="white"/>
<path d="M25.7339 14.1845C25.7775 14.2265 25.8301 14.2474 25.8916 14.2474C25.9532 14.2474 26.0057 14.2265 26.0493 14.1845C26.0929 14.1426 26.1147 14.0921 26.1147 14.0329C26.1147 13.9738 26.0929 13.9232 26.0493 13.8813C26.0057 13.8394 25.9532 13.8185 25.8916 13.8185C25.8301 13.8185 25.7775 13.8394 25.7339 13.8813C25.6904 13.9232 25.6686 13.9738 25.6686 14.0329C25.6686 14.0921 25.6904 14.1426 25.7339 14.1845Z" fill="white"/>
<path d="M28.2798 13.8211C28.2679 13.8193 28.2556 13.8185 28.243 13.8185C28.1814 13.8185 28.1288 13.8394 28.0853 13.8813C28.0467 13.9184 28.0252 13.9622 28.0207 14.0128C27.9995 14.0159 27.977 14.0181 27.953 14.0194C27.8607 14.0243 27.7414 14.0083 27.5953 13.9713C27.6466 14.0403 27.7171 14.0933 27.8068 14.1303C27.894 14.1698 27.9876 14.1907 28.0876 14.1932L28.0949 14.1933C28.1365 14.2294 28.1859 14.2474 28.243 14.2474C28.3045 14.2474 28.3571 14.2265 28.4006 14.1845C28.4268 14.1594 28.4452 14.1311 28.4556 14.0997C28.5138 14.0638 28.5629 14.0161 28.603 13.9565C28.662 13.8752 28.6915 13.7692 28.6915 13.6385V13.4166H31.0739C31.0995 13.4142 31.1252 13.4068 31.1508 13.3944C31.1764 13.3821 31.1893 13.3612 31.1893 13.3316V10.4584L30.8046 10.5397V13.0469H30.0561V11.9375L29.6715 12.0189V12.5945L29.1715 12.0706L28.9176 12.4071L29.5303 13.0469H28.6915V12.3073L28.3068 12.3886V13.6755C28.3068 13.724 28.2978 13.7726 28.2798 13.8211Z" fill="white"/>
<path d="M32.1301 13.2022C32.1147 13.2564 32.0788 13.3032 32.0224 13.3427C31.9685 13.3797 31.9044 13.4055 31.8301 13.4203C31.7583 13.4351 31.6878 13.4351 31.6185 13.4203C31.5519 13.4055 31.4955 13.3747 31.4493 13.3279C31.4032 13.2786 31.3801 13.2096 31.3801 13.1208V10.5397L31.7647 10.4584V13.1208C31.7647 13.1652 31.7788 13.1972 31.807 13.217C31.8352 13.2342 31.8698 13.2441 31.9109 13.2465C31.9519 13.2465 31.9929 13.2416 32.0339 13.2317C32.075 13.2219 32.107 13.212 32.1301 13.2022Z" fill="white"/>
<path d="M32.8705 11.0907C32.9141 11.1326 32.9667 11.1536 33.0282 11.1536C33.0898 11.1536 33.1423 11.1326 33.1859 11.0907C33.2295 11.0488 33.2513 10.9983 33.2513 10.9391C33.2513 10.8799 33.2295 10.8294 33.1859 10.7875C33.1423 10.7456 33.0898 10.7246 33.0282 10.7246C32.9667 10.7246 32.9141 10.7456 32.8705 10.7875C32.8269 10.8294 32.8051 10.8799 32.8051 10.9391C32.8051 10.9983 32.8269 11.0488 32.8705 11.0907Z" fill="white"/>
<path d="M32.8705 11.7193C32.9141 11.7612 32.9667 11.7822 33.0282 11.7822C33.0898 11.7822 33.1423 11.7612 33.1859 11.7193C33.2295 11.6774 33.2513 11.6269 33.2513 11.5677C33.2513 11.5086 33.2295 11.458 33.1859 11.4161C33.1423 11.3742 33.0898 11.3533 33.0282 11.3533C32.9667 11.3533 32.9141 11.3742 32.8705 11.4161C32.8269 11.458 32.8051 11.5086 32.8051 11.5677C32.8051 11.6269 32.8269 11.6774 32.8705 11.7193Z" fill="white"/>
<path fill-rule="evenodd" clip-rule="evenodd" d="M35.6481 13.0469L33.294 13.4166C33.1919 13.4154 33.0983 13.3908 33.0132 13.3427C32.926 13.2934 32.8555 13.2268 32.8017 13.143C32.7504 13.0567 32.7248 12.963 32.7248 12.862C32.7248 12.7584 32.7504 12.6647 32.8017 12.5809C32.8555 12.4971 32.926 12.4306 33.0132 12.3812C33.1004 12.3319 33.1966 12.3073 33.3017 12.3073H33.4325C33.4863 12.3073 33.5414 12.3036 33.5979 12.2962C33.6568 12.2863 33.7107 12.2691 33.7594 12.2444C33.8107 12.2198 33.8491 12.184 33.8748 12.1372V12.862C33.8748 12.8939 33.8722 12.9251 33.8671 12.9556V13.0469H34.6799L34.0672 12.4071L34.3211 12.0706L34.8211 12.5945V12.0189L35.2057 11.9375V13.0469H35.6481ZM33.3017 13.0469C33.3555 13.0469 33.4004 13.0296 33.4363 12.9951C33.4748 12.9581 33.494 12.9137 33.494 12.862C33.494 12.8102 33.4748 12.7671 33.4363 12.7325C33.4004 12.6956 33.3555 12.6771 33.3017 12.6771C33.2478 12.6771 33.2017 12.6956 33.1632 12.7325C33.1273 12.7671 33.1094 12.8102 33.1094 12.862C33.1094 12.9137 33.1273 12.9581 33.1632 12.9951C33.2017 13.0296 33.2478 13.0469 33.3017 13.0469Z" fill="white"/>
<path fill-rule="evenodd" clip-rule="evenodd" d="M35.6481 13.0469L36.5119 13.4166C36.6156 13.416 36.7105 13.3914 36.7966 13.3427C36.8838 13.2934 36.953 13.2268 37.0043 13.143C37.0556 13.0567 37.0812 12.963 37.0812 12.862C37.0812 12.7584 37.0556 12.6647 37.0043 12.5809C36.953 12.4971 36.8838 12.4306 36.7966 12.3812C36.7094 12.3319 36.6132 12.3073 36.5081 12.3073C36.403 12.3073 36.3068 12.3319 36.2196 12.3812C36.1325 12.4306 36.0619 12.4971 36.0081 12.5809C35.9568 12.6647 35.9312 12.7584 35.9312 12.862C35.9312 12.9266 35.9417 12.9882 35.9626 13.0469H35.6481ZM36.5081 13.0469C36.5619 13.0469 36.6068 13.0296 36.6427 12.9951C36.6812 12.9581 36.7004 12.9137 36.7004 12.862C36.7004 12.8102 36.6812 12.7671 36.6427 12.7325C36.6068 12.6956 36.5619 12.6771 36.5081 12.6771C36.4543 12.6771 36.4081 12.6956 36.3696 12.7325C36.3337 12.7671 36.3158 12.8102 36.3158 12.862C36.3158 12.9137 36.3337 12.9581 36.3696 12.9951C36.4081 13.0296 36.4543 13.0469 36.5081 13.0469Z" fill="white"/>
<path d="M33.4902 12.2333V11.7637L33.8748 11.5862V12.0337C33.8517 12.0756 33.8184 12.1113 33.7748 12.1409C33.7337 12.168 33.6876 12.1902 33.6363 12.2074C33.5876 12.2222 33.5389 12.2309 33.4902 12.2333Z" fill="white"/>
<path d="M33.4902 11.6898V10.5397L33.8748 10.4584V11.5123L33.4902 11.6898Z" fill="white"/>
<path d="M37.3888 13.4166H40.3489L40.5797 13.0469H39.6412C39.5181 13.0469 39.395 13.0173 39.2719 12.9581C39.1992 12.9209 39.1279 12.8757 39.058 12.8223C39.0696 12.8253 39.0826 12.8287 39.0972 12.8324C39.1433 12.8422 39.1908 12.8472 39.2395 12.8472C39.3036 12.8472 39.3677 12.8336 39.4318 12.8065C39.4959 12.7769 39.5498 12.7239 39.5934 12.6475C39.6344 12.5686 39.6549 12.4552 39.6549 12.3073V10.4584L39.2703 10.5397V12.396C39.2703 12.4675 39.2664 12.5329 39.2587 12.592C39.2485 12.6487 39.2241 12.6956 39.1857 12.7325C39.1519 12.765 39.1004 12.7879 39.0312 12.8014C38.9944 12.7721 38.9579 12.7405 38.9219 12.7067C38.8117 12.6006 38.7117 12.4799 38.6219 12.3443L38.4065 12.7399C38.4373 12.7868 38.4809 12.8422 38.5373 12.9063C38.5963 12.9704 38.6527 13.0173 38.7065 13.0469H37.658V10.4584L37.2734 10.5397V13.3316C37.2734 13.3612 37.2862 13.3821 37.3118 13.3944C37.3375 13.4068 37.3631 13.4142 37.3888 13.4166Z" fill="white"/>
<path d="M38.9628 14.2474C38.9013 14.2474 38.8487 14.2265 38.8052 14.1845C38.7616 14.1426 38.7398 14.0921 38.7398 14.0329C38.7398 13.9738 38.7616 13.9232 38.8052 13.8813C38.8487 13.8394 38.9013 13.8185 38.9628 13.8185C39.0244 13.8185 39.077 13.8394 39.1205 13.8813C39.1641 13.9232 39.1859 13.9738 39.1859 14.0329C39.1859 14.0921 39.1641 14.1426 39.1205 14.1845C39.077 14.2265 39.0244 14.2474 38.9628 14.2474Z" fill="white"/>
<path d="M41.4126 13.3427C41.469 13.3032 41.5049 13.2564 41.5203 13.2022C41.4973 13.212 41.4652 13.2219 41.4242 13.2317C41.3831 13.2416 41.3421 13.2465 41.3011 13.2465C41.2601 13.2441 41.2254 13.2342 41.1972 13.217C41.169 13.1972 41.1549 13.1652 41.1549 13.1208V10.4584L40.7703 10.5397V13.1208C40.7703 13.2096 40.7934 13.2786 40.8395 13.3279C40.8857 13.3747 40.9421 13.4055 41.0088 13.4203C41.078 13.4351 41.1485 13.4351 41.2203 13.4203C41.2947 13.4055 41.3588 13.3797 41.4126 13.3427Z" fill="white"/>
<path d="M33.3172 23.786C33.3608 23.8966 33.3826 24.0223 33.3826 24.1634C33.3826 24.3311 33.339 24.4836 33.2518 24.6208C33.1645 24.758 33.0297 24.8666 32.8474 24.9467C32.6689 25.0229 32.435 25.061 32.1456 25.061C31.8958 25.061 31.6698 25.0382 31.4676 24.9924C31.2654 24.9467 31.0929 24.8705 30.9502 24.7637C30.8114 24.657 30.7044 24.5179 30.6291 24.3463C30.5537 24.171 30.5161 23.9575 30.5161 23.706H28.5773C28.5773 24.1862 28.6784 24.6017 28.8806 24.9524C29.0868 25.2993 29.3603 25.5852 29.7013 25.8101C30.0462 26.0349 30.4308 26.2027 30.8551 26.3132C31.2793 26.4199 31.7095 26.4733 32.1456 26.4733C32.6253 26.4733 33.0595 26.4218 33.448 26.3189C33.8366 26.216 34.1696 26.0654 34.4471 25.8672C34.7286 25.6652 34.9427 25.4213 35.0894 25.1354C35.2401 24.8495 35.3154 24.5217 35.3154 24.1519C35.3154 23.8051 35.252 23.4944 35.1251 23.22C35.0022 22.9455 34.8178 22.6997 34.572 22.4824C34.3262 22.2651 34.0229 22.0707 33.6621 21.8992C33.3053 21.7277 32.8949 21.5714 32.4311 21.4303C32.1654 21.3541 31.9295 21.2741 31.7233 21.1902C31.5172 21.1063 31.3427 21.0187 31.2 20.9272C31.0612 20.8319 30.9542 20.7309 30.8788 20.6242C30.8075 20.5136 30.7718 20.3916 30.7718 20.2582C30.7718 20.0905 30.8194 19.9361 30.9145 19.7951C31.0136 19.6541 31.1584 19.5435 31.3487 19.4635C31.5429 19.3796 31.7828 19.3377 32.0683 19.3377C32.3617 19.3377 32.6055 19.3872 32.7998 19.4863C32.998 19.5854 33.1447 19.7227 33.2399 19.898C33.339 20.0695 33.3885 20.2678 33.3885 20.4926H35.3154C35.3154 19.9819 35.1806 19.534 34.911 19.149C34.6414 18.7602 34.2648 18.4591 33.7811 18.2456C33.3013 18.0283 32.7443 17.9197 32.1099 17.9197C31.6341 17.9197 31.198 17.975 30.8015 18.0855C30.4051 18.1923 30.0601 18.3485 29.7667 18.5544C29.4733 18.7564 29.2454 19.0003 29.0828 19.2862C28.9203 19.5721 28.839 19.8923 28.839 20.2468C28.839 20.6127 28.9163 20.9329 29.0709 21.2074C29.2295 21.4818 29.4456 21.7219 29.7192 21.9278C29.9927 22.1336 30.304 22.3147 30.6529 22.471C31.0057 22.6234 31.3764 22.7606 31.765 22.8826C32.1059 22.9855 32.3815 23.0866 32.5916 23.1857C32.8018 23.281 32.9643 23.3762 33.0793 23.4715C33.1943 23.5668 33.2736 23.6717 33.3172 23.786Z" fill="white"/>
<path fill-rule="evenodd" clip-rule="evenodd" d="M17.8508 18.0341H16.0428L12.8373 26.3589H14.9069L15.457 24.7008H18.4471L18.9986 26.3589H21.0682L17.8508 18.0341ZM17.9679 23.26H15.9349L16.95 20.1998L17.9679 23.26Z" fill="white"/>
<path d="M25.9943 18.0341H27.9331V23.5001C27.9331 24.1481 27.7904 24.6932 27.5049 25.1354C27.2234 25.5775 26.8309 25.9111 26.3274 26.136C25.8238 26.3609 25.241 26.4733 24.5789 26.4733C23.9128 26.4733 23.326 26.3609 22.8186 26.136C22.315 25.9111 21.9186 25.5775 21.6291 25.1354C21.3437 24.6932 21.2009 24.1481 21.2009 23.5001V18.0341H23.1457V23.5001C23.1457 23.8584 23.2012 24.1519 23.3122 24.3806C23.4271 24.6055 23.5917 24.7714 23.8058 24.8781C24.0199 24.981 24.2776 25.0325 24.5789 25.0325C24.8802 25.0325 25.136 24.981 25.3461 24.8781C25.5602 24.7714 25.7208 24.6055 25.8278 24.3806C25.9388 24.1519 25.9943 23.8584 25.9943 23.5001V18.0341Z" fill="white"/>
<path d="M40.0631 19.4806V26.3589H38.1303V19.4806H35.5493V18.0341H42.6977V19.4806H40.0631Z" fill="white"/>
<path d="M24.9338 33.1813C24.9338 33.1422 24.9276 33.1071 24.915 33.076C24.9036 33.0439 24.8817 33.0148 24.8493 32.9887C24.817 32.9616 24.7716 32.935 24.7132 32.909C24.6547 32.8829 24.5791 32.8558 24.4862 32.8277C24.3829 32.7956 24.2849 32.7595 24.192 32.7194C24.1002 32.6793 24.0188 32.6326 23.9478 32.5794C23.8779 32.5253 23.8226 32.4626 23.782 32.3914C23.7423 32.3201 23.7225 32.2374 23.7225 32.1431C23.7225 32.0518 23.7433 31.9691 23.7851 31.8948C23.8268 31.8196 23.8852 31.7554 23.9604 31.7022C24.0355 31.6481 24.1242 31.6064 24.2264 31.5774C24.3297 31.5483 24.4429 31.5337 24.566 31.5337C24.734 31.5337 24.8806 31.5628 25.0058 31.621C25.131 31.6792 25.2281 31.7589 25.2969 31.8602C25.3668 31.9615 25.4018 32.0774 25.4018 32.2078H24.9354C24.9354 32.1436 24.9213 32.0874 24.8931 32.0393C24.866 31.9901 24.8243 31.9515 24.7679 31.9234C24.7126 31.8953 24.6427 31.8813 24.5582 31.8813C24.4768 31.8813 24.409 31.8933 24.3548 31.9174C24.3005 31.9405 24.2598 31.9721 24.2327 32.0122C24.2056 32.0513 24.192 32.0954 24.192 32.1446C24.192 32.1817 24.2014 32.2153 24.2202 32.2454C24.24 32.2755 24.2692 32.3036 24.3078 32.3297C24.3464 32.3558 24.3939 32.3803 24.4502 32.4034C24.5066 32.4265 24.5718 32.449 24.6459 32.4711C24.77 32.5072 24.879 32.5478 24.9729 32.593C25.0679 32.6381 25.1472 32.6888 25.2108 32.745C25.2745 32.8011 25.3225 32.8648 25.3548 32.936C25.3872 33.0073 25.4033 33.088 25.4033 33.1783C25.4033 33.2736 25.384 33.3588 25.3454 33.4341C25.3068 33.5093 25.251 33.573 25.178 33.6252C25.1049 33.6773 25.0178 33.717 24.9166 33.744C24.8154 33.7711 24.7022 33.7847 24.577 33.7847C24.4643 33.7847 24.3532 33.7706 24.2436 33.7425C24.1341 33.7134 24.0344 33.6698 23.9447 33.6116C23.856 33.5535 23.7851 33.4792 23.7319 33.3889C23.6787 33.2987 23.6521 33.1918 23.6521 33.0685H24.1231C24.1231 33.1367 24.1341 33.1943 24.156 33.2415C24.1779 33.2886 24.2087 33.3268 24.2483 33.3558C24.289 33.3849 24.337 33.406 24.3923 33.419C24.4487 33.4321 24.5102 33.4386 24.577 33.4386C24.6584 33.4386 24.7251 33.4276 24.7773 33.4055C24.8305 33.3834 24.8697 33.3528 24.8947 33.3137C24.9208 33.2746 24.9338 33.2305 24.9338 33.1813Z" fill="white"/>
<path d="M25.9234 31.5638L26.3992 32.5629L26.875 31.5638H27.3867L26.6371 32.9571V33.7546H26.1613V32.9571L25.4101 31.5638H25.9234Z" fill="white"/>
<path fill-rule="evenodd" clip-rule="evenodd" d="M28.3325 31.5638H27.4827V33.7546H27.9522V32.9436H28.3251L28.7566 33.7546H29.259V33.7335L28.7658 32.8345C28.8295 32.8069 28.887 32.7741 28.9382 32.7359C29.0133 32.6798 29.0712 32.61 29.1119 32.5268C29.1537 32.4425 29.1745 32.3417 29.1745 32.2243C29.1745 32.0809 29.1406 31.96 29.0728 31.8617C29.005 31.7634 28.9079 31.6892 28.7817 31.639C28.6565 31.5889 28.5068 31.5638 28.3325 31.5638ZM27.9522 32.5915H28.3357C28.4181 32.5915 28.4864 32.5774 28.5407 32.5494C28.5949 32.5213 28.6356 32.4821 28.6627 32.432C28.6909 32.3818 28.705 32.3237 28.705 32.2575C28.705 32.1872 28.6914 32.1265 28.6643 32.0754C28.6372 32.0242 28.596 31.9851 28.5407 31.958C28.4854 31.9309 28.416 31.9174 28.3325 31.9174H27.9522V32.5915Z" fill="white"/>
<path d="M29.9231 31.5638V33.7546H29.4552V31.5638H29.9231Z" fill="white"/>
<path fill-rule="evenodd" clip-rule="evenodd" d="M31.3697 31.5638L32.2211 33.7546H31.7203L31.5622 33.2926H30.7433L30.5856 33.7546H30.0864L30.9331 31.5638H31.3697ZM30.8639 32.9391H31.4413L31.1522 32.0942L30.8639 32.9391Z" fill="white"/>
<path d="M26.0891 35.8812V36.2198H24.5303V35.9309L25.2674 35.171C25.3415 35.0918 25.3999 35.0221 25.4427 34.9619C25.4855 34.9007 25.5163 34.846 25.535 34.7979C25.5549 34.7487 25.5648 34.7021 25.5648 34.658C25.5648 34.5918 25.5533 34.5351 25.5303 34.4879C25.5074 34.4398 25.4735 34.4027 25.4286 34.3766C25.3848 34.3505 25.3305 34.3375 25.2659 34.3375C25.197 34.3375 25.1375 34.3535 25.0874 34.3856C25.0384 34.4177 25.0008 34.4624 24.9748 34.5195C24.9497 34.5767 24.9372 34.6414 24.9372 34.7136H24.4849C24.4849 34.5832 24.5172 34.4639 24.5819 34.3555C24.6466 34.2462 24.7379 34.1594 24.8558 34.0952C24.9737 34.03 25.1135 33.9974 25.2753 33.9974C25.4349 33.9974 25.5695 34.0225 25.679 34.0727C25.7896 34.1218 25.8731 34.193 25.9294 34.2863C25.9868 34.3786 26.0155 34.4889 26.0155 34.6173C26.0155 34.6896 26.0035 34.7603 25.9795 34.8295C25.9555 34.8977 25.9211 34.9659 25.8762 35.0341C25.8324 35.1013 25.7792 35.1695 25.7166 35.2388C25.654 35.308 25.5846 35.3797 25.5084 35.4539L25.1125 35.8812H26.0891Z" fill="white"/>
<path fill-rule="evenodd" clip-rule="evenodd" d="M27.7923 35.311V34.9318C27.7923 34.8004 27.7803 34.684 27.7563 34.5827C27.7323 34.4804 27.6979 34.3926 27.653 34.3194C27.6082 34.2452 27.5539 34.1845 27.4903 34.1374C27.4266 34.0902 27.3552 34.0556 27.2759 34.0335C27.1976 34.0105 27.1126 33.9989 27.0208 33.9989C26.906 33.9989 26.8017 34.017 26.7078 34.0531C26.6139 34.0882 26.5325 34.1434 26.4636 34.2186C26.3958 34.2938 26.3431 34.3906 26.3055 34.509C26.269 34.6264 26.2508 34.7673 26.2508 34.9318V35.311C26.2508 35.4434 26.2628 35.5607 26.2868 35.6631C26.3108 35.7654 26.3452 35.8536 26.3901 35.9279C26.436 36.0011 26.4902 36.0618 26.5528 36.1099C26.6165 36.1581 26.6879 36.1937 26.7672 36.2168C26.8465 36.2388 26.9321 36.2499 27.0239 36.2499C27.1387 36.2499 27.243 36.2318 27.3369 36.1957C27.4308 36.1596 27.5117 36.1039 27.5795 36.0287C27.6484 35.9525 27.701 35.8552 27.7376 35.7368C27.7741 35.6174 27.7923 35.4755 27.7923 35.311ZM27.34 34.8731V35.3681C27.34 35.4675 27.3333 35.5517 27.3197 35.6209C27.3061 35.6901 27.2853 35.7463 27.2571 35.7895C27.23 35.8316 27.1966 35.8627 27.1569 35.8827C27.1183 35.9018 27.074 35.9113 27.0239 35.9113C26.9832 35.9113 26.9456 35.9053 26.9112 35.8933C26.8778 35.8812 26.8481 35.8622 26.822 35.8361C26.797 35.809 26.7751 35.7744 26.7563 35.7323C26.7385 35.6891 26.725 35.6375 26.7156 35.5773C26.7072 35.5171 26.7031 35.4474 26.7031 35.3681V34.8731C26.7031 34.7748 26.7098 34.6916 26.7234 34.6234C26.738 34.5541 26.7589 34.499 26.786 34.4578C26.8131 34.4157 26.846 34.3851 26.8846 34.3661C26.9243 34.347 26.9696 34.3375 27.0208 34.3375C27.0615 34.3375 27.0985 34.3435 27.1319 34.3555C27.1653 34.3676 27.195 34.3866 27.2211 34.4127C27.2472 34.4388 27.2691 34.4729 27.2868 34.515C27.3046 34.5561 27.3176 34.6063 27.326 34.6655C27.3353 34.7247 27.34 34.7939 27.34 34.8731Z" fill="white"/>
<path fill-rule="evenodd" clip-rule="evenodd" d="M29.5206 34.9318V35.311C29.5206 35.4755 29.5024 35.6174 29.4659 35.7368C29.4293 35.8552 29.3767 35.9525 29.3078 36.0287C29.24 36.1039 29.1591 36.1596 29.0652 36.1957C28.9713 36.2318 28.867 36.2499 28.7522 36.2499C28.6604 36.2499 28.5748 36.2388 28.4955 36.2168C28.4162 36.1937 28.3448 36.1581 28.2811 36.1099C28.2185 36.0618 28.1643 36.0011 28.1184 35.9279C28.0735 35.8536 28.0391 35.7654 28.0151 35.6631C27.9911 35.5607 27.9791 35.4434 27.9791 35.311V34.9318C27.9791 34.7673 27.9973 34.6264 28.0339 34.509C28.0714 34.3906 28.1241 34.2938 28.1919 34.2186C28.2608 34.1434 28.3422 34.0882 28.4361 34.0531C28.53 34.017 28.6343 33.9989 28.7491 33.9989C28.8409 33.9989 28.9259 34.0105 29.0042 34.0335C29.0835 34.0556 29.1549 34.0902 29.2186 34.1374C29.2822 34.1845 29.3365 34.2452 29.3814 34.3194C29.4262 34.3926 29.4606 34.4804 29.4846 34.5827C29.5086 34.684 29.5206 34.8004 29.5206 34.9318ZM29.0683 35.3681V34.8731C29.0683 34.7939 29.0636 34.7247 29.0543 34.6655C29.0459 34.6063 29.0329 34.5561 29.0151 34.515C28.9974 34.4729 28.9755 34.4388 28.9494 34.4127C28.9233 34.3866 28.8936 34.3676 28.8602 34.3555C28.8268 34.3435 28.7898 34.3375 28.7491 34.3375C28.6979 34.3375 28.6526 34.347 28.6129 34.3661C28.5743 34.3851 28.5414 34.4157 28.5143 34.4578C28.4872 34.499 28.4663 34.5541 28.4517 34.6234C28.4382 34.6916 28.4314 34.7748 28.4314 34.8731V35.3681C28.4314 35.4474 28.4355 35.5171 28.4439 35.5773C28.4533 35.6375 28.4668 35.6891 28.4846 35.7323C28.5034 35.7744 28.5253 35.809 28.5503 35.8361C28.5764 35.8622 28.6061 35.8812 28.6395 35.8933C28.674 35.9053 28.7115 35.9113 28.7522 35.9113C28.8023 35.9113 28.8466 35.9018 28.8852 35.8827C28.9249 35.8627 28.9583 35.8316 28.9854 35.7895C29.0136 35.7463 29.0344 35.6901 29.048 35.6209C29.0616 35.5517 29.0683 35.4675 29.0683 35.3681Z" fill="white"/>
<path d="M31.263 34.2622V34.029H29.6526V34.3676H30.7873L29.9061 36.2198H30.3819L31.263 34.2622Z" fill="white"/>
<path fill-rule="evenodd" clip-rule="evenodd" d="M20.9828 6.63732L27.8865 0L34.7903 6.63732H44.5536V16.0238L51.4573 22.6611L44.5536 29.2984V38.685H34.7902L27.8865 45.3223L20.9828 38.685H11.2195V29.2984L4.31576 22.6611L11.2195 16.0238V6.63732H20.9828ZM13.1426 8.48622L13.1426 16.7898L7.03548 22.6611L13.1426 28.5326V36.8362H21.7794L27.8865 42.7075L33.9936 36.8362H42.6304V28.5327L48.7376 22.6611L42.6305 16.7898V8.48622L33.9937 8.48628L27.8865 2.61475L21.7794 8.48622H13.1426Z" fill="white"/>
<path d="M35.08 44.3007L37.0747 46.0275L39.3992 44.7372L38.3075 47.0946L40.3022 48.8214L37.6327 48.5516L36.541 50.9091L35.9829 48.3849L33.3135 48.1152L35.638 46.8249L35.08 44.3007Z" fill="white"/>
<path d="M48.3083 39.4342L45.8343 38.4333L47.2239 40.6412L45.4693 42.594L48.0827 42.0057L49.4723 44.2135L49.6979 41.6421L52.3114 41.0537L49.8374 40.0528L50.063 37.4814L48.3083 39.4342Z" fill="white"/>
<path d="M52.3238 29.925L53.728 30.3765L54.6086 29.2321L54.5958 30.6556L56 31.1072L54.5879 31.5354L54.5751 32.9588L53.7152 31.8L52.3031 32.2282L53.1837 31.0838L52.3238 29.925Z" fill="white"/>
<path d="M18.9253 46.0275L20.92 44.3007L20.362 46.8249L22.6865 48.1152L20.0171 48.3849L19.459 50.9091L18.3673 48.5516L15.6978 48.8214L17.6925 47.0946L16.6008 44.7372L18.9253 46.0275Z" fill="white"/>
<path d="M10.1657 38.4333L7.69169 39.4342L5.93705 37.4814L6.16266 40.0528L3.68864 41.0537L6.30209 41.6421L6.5277 44.2135L7.9173 42.0057L10.5307 42.594L8.77611 40.6412L10.1657 38.4333Z" fill="white"/>
<path d="M2.27203 30.3765L3.67622 29.925L2.81628 31.0838L3.69688 32.2282L2.2848 31.8L1.42485 32.9588L1.41208 31.5354L0 31.1072L1.4042 30.6556L1.39143 29.2321L2.27203 30.3765Z" fill="white"/>
</svg>
